<svg width="128" height="32" viewBox="0 0 128 32" fill="none" xmlns="http://www.w3.org/2000/svg">
<path d="M18.8996 15.152C18.9133 14.0859 19.1965 13.0407 19.7227 12.1134C20.249 11.1862 21.0012 10.4072 21.9095 9.84883C21.3325 9.02481 20.5713 8.34668 19.6864 7.86829C18.8015 7.3899 17.8173 7.12443 16.8118 7.09297C14.667 6.86785 12.5878 8.37637 11.4948 8.37637C10.3808 8.37637 8.698 7.11532 6.88595 7.15261C5.71387 7.19047 4.57158 7.53131 3.57039 8.1419C2.5692 8.75249 1.74324 9.61202 1.173 10.6367C-1.29717 14.9134 0.545355 21.1988 2.91157 24.6557C4.09543 26.3485 5.47903 28.2394 7.28944 28.1723C9.06104 28.0988 9.7227 27.0426 11.8612 27.0426C13.9798 27.0426 14.6006 28.1723 16.4477 28.1297C18.3487 28.0988 19.5464 26.4294 20.6888 24.7206C21.5394 23.5144 22.1939 22.1813 22.6281 20.7707C21.5237 20.3036 20.5812 19.5217 19.9182 18.5225C19.2551 17.5234 18.9009 16.3511 18.8996 15.152Z" fill="white"/>
<path d="M15.4108 4.81966C16.4473 3.57537 16.9579 1.97605 16.8343 0.361328C15.2507 0.52765 13.788 1.28448 12.7374 2.48103C12.2238 3.06558 11.8304 3.74562 11.5798 4.48229C11.3291 5.21896 11.2261 5.99781 11.2767 6.77431C12.0687 6.78246 12.8523 6.61079 13.5684 6.27221C14.2845 5.93363 14.9144 5.43698 15.4108 4.81966Z" fill="white"/>
<path d="M41.2935 23.8882H35.2479L33.7961 28.1751H31.2354L36.9617 12.3145H39.6222L45.3485 28.1751H42.7441L41.2935 23.8882ZM35.874 21.9099H40.6662L38.3038 14.9525H38.2377L35.874 21.9099Z" fill="white"/>
<path d="M57.7154 22.3939C57.7154 25.9873 55.7921 28.2961 52.8896 28.2961C52.1544 28.3345 51.4232 28.1652 50.7797 27.8074C50.1363 27.4496 49.6066 26.9178 49.2513 26.2729H49.1964V32.0005H46.8228V16.6114H49.1203V18.5347H49.164C49.5356 17.893 50.0742 17.364 50.7226 17.004C51.371 16.644 52.1048 16.4665 52.846 16.4904C55.7808 16.4904 57.7154 18.8104 57.7154 22.3939ZM55.2757 22.3939C55.2757 20.0527 54.0658 18.5135 52.2198 18.5135C50.4063 18.5135 49.1864 20.0851 49.1864 22.3939C49.1864 24.7238 50.4063 26.2842 52.2198 26.2842C54.0658 26.2842 55.2757 24.7563 55.2757 22.3939Z" fill="white"/>
<path d="M70.443 22.3939C70.443 25.9873 68.5196 28.2961 65.6172 28.2961C64.8819 28.3345 64.1507 28.1652 63.5073 27.8074C62.8638 27.4496 62.3341 26.9178 61.9788 26.2729H61.9239V32.0005H59.5503V16.6114H61.8478V18.5347H61.8915C62.2631 17.893 62.8017 17.3639 63.4501 17.004C64.0984 16.644 64.8323 16.4665 65.5735 16.4904C68.5084 16.4904 70.443 18.8104 70.443 22.3939ZM68.0033 22.3939C68.0033 20.0527 66.7934 18.5135 64.9474 18.5135C63.1338 18.5135 61.9139 20.0851 61.9139 22.3939C61.9139 24.7238 63.1338 26.2842 64.9474 26.2842C66.7934 26.2842 68.0033 24.7562 68.0033 22.3939H68.0033Z" fill="white"/>
<path d="M78.8546 23.7557C79.0305 25.3286 80.5584 26.3613 82.6464 26.3613C84.647 26.3613 86.0864 25.3285 86.0864 23.9104C86.0864 22.6793 85.2183 21.9421 83.1627 21.437L81.1072 20.9418C78.1948 20.2383 76.8427 18.8763 76.8427 16.6661C76.8427 13.9295 79.2275 12.0498 82.6139 12.0498C85.9654 12.0498 88.2629 13.9295 88.3403 16.6661H85.9442C85.8007 15.0832 84.4923 14.1278 82.5802 14.1278C80.6681 14.1278 79.3597 15.0945 79.3597 16.5014C79.3597 17.6227 80.1954 18.2826 82.2397 18.7877L83.9872 19.2167C87.2414 19.9863 88.5934 21.2935 88.5934 23.6135C88.5934 26.5808 86.2298 28.4392 82.4704 28.4392C78.9531 28.4392 76.5782 26.6244 76.4248 23.7556L78.8546 23.7557Z" fill="white"/>
<path d="M93.7161 13.8752V16.6118H95.9151V18.4915H93.7161V24.8664C93.7161 25.8568 94.1564 26.3183 95.123 26.3183C95.3841 26.3137 95.6447 26.2954 95.9038 26.2633V28.1318C95.4692 28.213 95.0275 28.2498 94.5854 28.2416C92.2443 28.2416 91.3312 27.3622 91.3312 25.1196V18.4915H89.6499V16.6118H91.3312V13.8752H93.7161Z" fill="white"/>
<path d="M97.189 22.3941C97.189 18.7558 99.3318 16.4695 102.673 16.4695C106.026 16.4695 108.159 18.7557 108.159 22.3941C108.159 26.0425 106.037 28.3188 102.673 28.3188C99.3106 28.3188 97.189 26.0425 97.189 22.3941ZM105.74 22.3941C105.74 19.8983 104.597 18.4252 102.673 18.4252C100.75 18.4252 99.6075 19.9095 99.6075 22.3941C99.6075 24.8999 100.75 26.3618 102.673 26.3618C104.597 26.3618 105.74 24.8999 105.74 22.3941H105.74Z" fill="white"/>
<path d="M110.115 16.6113H112.379V18.5795H112.434C112.587 17.9648 112.947 17.4216 113.454 17.0411C113.96 16.6606 114.582 16.4661 115.215 16.4903C115.489 16.4893 115.762 16.519 116.029 16.5789V18.799C115.683 18.6935 115.323 18.6451 114.962 18.6556C114.617 18.6416 114.274 18.7024 113.955 18.8338C113.635 18.9652 113.349 19.1641 113.114 19.4169C112.879 19.6696 112.701 19.9703 112.593 20.2981C112.485 20.6259 112.45 20.9732 112.489 21.3161V28.175H110.115L110.115 16.6113Z" fill="white"/>
<path d="M126.973 24.779C126.653 26.8782 124.609 28.3188 121.993 28.3188C118.629 28.3188 116.542 26.0649 116.542 22.449C116.542 18.8219 118.641 16.4695 121.894 16.4695C125.093 16.4695 127.105 18.6672 127.105 22.1734V22.9866H118.938V23.13C118.9 23.5556 118.953 23.9843 119.094 24.3877C119.235 24.7911 119.46 25.16 119.754 25.4698C120.048 25.7796 120.405 26.0232 120.8 26.1845C121.196 26.3458 121.621 26.4211 122.048 26.4054C122.609 26.458 123.172 26.3281 123.653 26.035C124.134 25.742 124.508 25.3014 124.719 24.779L126.973 24.779ZM118.949 21.3277H124.73C124.751 20.945 124.693 20.5621 124.56 20.2029C124.426 19.8438 124.219 19.5161 123.953 19.2405C123.687 18.965 123.366 18.7474 123.012 18.6015C122.658 18.4556 122.277 18.3846 121.894 18.3928C121.507 18.3905 121.124 18.4648 120.766 18.6113C120.409 18.7579 120.083 18.9738 119.81 19.2467C119.536 19.5195 119.319 19.8439 119.171 20.2011C119.023 20.5583 118.948 20.9412 118.949 21.3277V21.3277Z" fill="white"/>
<path d="M35.577 0.375835C36.0746 0.340125 36.574 0.415303 37.039 0.595945C37.5041 0.776588 37.9233 1.05819 38.2663 1.42045C38.6093 1.7827 38.8677 2.21658 39.0228 2.69077C39.1778 3.16497 39.2257 3.66768 39.163 4.16262C39.163 6.59734 37.8471 7.99687 35.577 7.99687H32.8242V0.375835H35.577ZM34.0079 6.91909H35.4448C35.8004 6.94035 36.1562 6.88204 36.4864 6.74843C36.8166 6.61481 37.1129 6.40924 37.3537 6.14669C37.5944 5.88413 37.7736 5.5712 37.8781 5.23067C37.9827 4.89013 38.01 4.53057 37.9581 4.17815C38.0062 3.82713 37.9762 3.46979 37.87 3.13176C37.7638 2.79372 37.5842 2.48335 37.344 2.22288C37.1038 1.96242 36.809 1.7583 36.4806 1.62517C36.1523 1.49204 35.7986 1.43318 35.4448 1.45281H34.0079V6.91909Z" fill="white"/>
<path d="M40.5001 5.11886C40.464 4.7409 40.5072 4.35956 40.6271 3.9993C40.7469 3.63903 40.9408 3.30779 41.1961 3.02682C41.4515 2.74585 41.7628 2.52136 42.11 2.36774C42.4572 2.21412 42.8327 2.13477 43.2124 2.13477C43.5921 2.13477 43.9676 2.21412 44.3148 2.36774C44.662 2.52136 44.9733 2.74585 45.2286 3.02682C45.484 3.30779 45.6778 3.63903 45.7977 3.9993C45.9175 4.35956 45.9608 4.7409 45.9246 5.11886C45.9615 5.4972 45.9187 5.87907 45.7992 6.23992C45.6797 6.60077 45.486 6.93262 45.2305 7.21414C44.9751 7.49566 44.6636 7.72062 44.316 7.87457C43.9684 8.02852 43.5925 8.10806 43.2124 8.10806C42.8322 8.10806 42.4563 8.02852 42.1088 7.87457C41.7612 7.72062 41.4497 7.49566 41.1942 7.21414C40.9388 6.93262 40.7451 6.60077 40.6256 6.23992C40.506 5.87907 40.4633 5.4972 40.5001 5.11886ZM44.7571 5.11886C44.7571 3.87219 44.1971 3.14315 43.2142 3.14315C42.2276 3.14315 41.6726 3.87219 41.6726 5.11887C41.6726 6.37553 42.2277 7.09895 43.2142 7.09895C44.1971 7.09894 44.7572 6.37052 44.7572 5.11886H44.7571Z" fill="white"/>
<path d="M53.1353 7.9964H51.9578L50.7692 3.76058H50.6794L49.4957 7.9964H48.3295L46.7441 2.24512H47.8954L48.9257 6.63369H49.0105L50.1929 2.24512H51.2818L52.4642 6.63369H52.554L53.5793 2.24512H54.7144L53.1353 7.9964Z" fill="white"/>
<path d="M56.0479 2.24461H57.1405V3.15825H57.2253C57.3692 2.8301 57.6119 2.55502 57.9195 2.37135C58.2272 2.18768 58.5845 2.10456 58.9416 2.13359C59.2214 2.11255 59.5024 2.15475 59.7637 2.25705C60.0251 2.35935 60.26 2.51913 60.4512 2.72457C60.6424 2.93 60.7849 3.17582 60.8682 3.44381C60.9514 3.7118 60.9733 3.99509 60.9323 4.2727V7.99583H59.7972V4.55773C59.7972 3.63348 59.3956 3.17385 58.5562 3.17385C58.3662 3.165 58.1765 3.19733 58.0002 3.26864C57.8238 3.33995 57.665 3.44854 57.5346 3.58697C57.4041 3.72541 57.3052 3.89041 57.2445 4.07066C57.1838 4.25092 57.1628 4.44217 57.1829 4.63131V7.99589H56.0479L56.0479 2.24461Z" fill="white"/>
<path d="M62.7407 0H63.8758V7.99641H62.7407V0Z" fill="white"/>
<path d="M65.4532 5.11897C65.4171 4.74099 65.4604 4.35963 65.5802 3.99934C65.7001 3.63906 65.894 3.30781 66.1494 3.02684C66.4048 2.74586 66.7161 2.52137 67.0633 2.36774C67.4106 2.21412 67.7861 2.13477 68.1658 2.13477C68.5455 2.13477 68.921 2.21412 69.2683 2.36774C69.6155 2.52137 69.9268 2.74586 70.1822 3.02684C70.4376 3.30781 70.6315 3.63906 70.7513 3.99934C70.8712 4.35963 70.9145 4.74099 70.8784 5.11897C70.9152 5.49733 70.8724 5.8792 70.7528 6.24005C70.6332 6.6009 70.4395 6.93274 70.184 7.21425C69.9286 7.49576 69.617 7.72072 69.2695 7.87466C68.9219 8.0286 68.5459 8.10813 68.1658 8.10813C67.7857 8.10813 67.4097 8.0286 67.0621 7.87466C66.7145 7.72072 66.403 7.49576 66.1476 7.21425C65.8921 6.93274 65.6983 6.6009 65.5788 6.24005C65.4592 5.8792 65.4164 5.49733 65.4532 5.11897ZM69.7102 5.11897C69.7102 3.8723 69.1502 3.14326 68.1674 3.14326C67.1807 3.14326 66.6257 3.8723 66.6257 5.11898C66.6257 6.37564 67.1808 7.09906 68.1674 7.09906C69.1502 7.09905 69.7103 6.37063 69.7103 5.11897H69.7102Z" fill="white"/>
<path d="M72.0732 6.37058C72.0732 5.33532 72.8441 4.73849 74.2123 4.65367L75.7702 4.56387V4.06745C75.7702 3.46001 75.3686 3.11701 74.5928 3.11701C73.9592 3.11701 73.5201 3.34963 73.3941 3.75625H72.2953C72.4113 2.76839 73.3405 2.13477 74.6452 2.13477C76.087 2.13477 76.9003 2.85257 76.9003 4.06745V7.99705H75.8076V7.18881H75.7178C75.5356 7.47873 75.2796 7.71508 74.9761 7.87373C74.6726 8.03237 74.3324 8.10763 73.9903 8.09181C73.7489 8.11692 73.5049 8.09117 73.274 8.01619C73.0431 7.94122 72.8305 7.8187 72.6499 7.65653C72.4693 7.49436 72.3246 7.29614 72.2253 7.07465C72.126 6.85316 72.0742 6.61332 72.0732 6.37058ZM75.7702 5.87914V5.39831L74.3658 5.48811C73.5737 5.54112 73.2145 5.81053 73.2145 6.31756C73.2145 6.83518 73.6635 7.1364 74.281 7.1364C74.4619 7.15472 74.6447 7.13645 74.8184 7.08269C74.9921 7.02893 75.1532 6.94078 75.2921 6.82348C75.4311 6.70617 75.545 6.56212 75.6272 6.39989C75.7093 6.23765 75.7579 6.06056 75.7702 5.87914Z" fill="white"/>
<path d="M78.3921 5.1183C78.3921 3.30099 79.3263 2.14973 80.7794 2.14973C81.1389 2.13317 81.4956 2.21926 81.8079 2.39794C82.1202 2.57662 82.3752 2.8405 82.5431 3.15875H82.6279V0H83.763V7.99641H82.6753V7.08775H82.5855C82.4047 7.40385 82.1408 7.66445 81.8224 7.84133C81.5041 8.0182 81.1434 8.10461 80.7794 8.0912C79.3163 8.09126 78.3921 6.93998 78.3921 5.1183ZM79.5646 5.1183C79.5646 6.33816 80.1396 7.07219 81.1013 7.07219C82.0579 7.07219 82.6492 6.32757 82.6492 5.12329C82.6492 3.92464 82.0517 3.1694 81.1013 3.1694C80.1458 3.1694 79.5646 3.90842 79.5646 5.1183H79.5646Z" fill="white"/>
<path d="M88.4591 5.11886C88.423 4.7409 88.4662 4.35956 88.5861 3.9993C88.7059 3.63903 88.8997 3.30779 89.1551 3.02682C89.4105 2.74585 89.7218 2.52136 90.069 2.36774C90.4162 2.21412 90.7917 2.13477 91.1714 2.13477C91.551 2.13477 91.9265 2.21412 92.2737 2.36774C92.621 2.52136 92.9322 2.74585 93.1876 3.02682C93.443 3.30779 93.6368 3.63903 93.7567 3.9993C93.8765 4.35956 93.9198 4.7409 93.8836 5.11886C93.9205 5.4972 93.8777 5.87907 93.7582 6.23992C93.6386 6.60077 93.4449 6.93262 93.1895 7.21414C92.9341 7.49566 92.6226 7.72062 92.275 7.87457C91.9274 8.02852 91.5515 8.10806 91.1714 8.10806C90.7912 8.10806 90.4153 8.02852 90.0677 7.87457C89.7202 7.72062 89.4087 7.49566 89.1532 7.21414C88.8978 6.93262 88.7041 6.60077 88.5845 6.23992C88.465 5.87907 88.4223 5.4972 88.4591 5.11886ZM92.7161 5.11886C92.7161 3.87219 92.1561 3.14315 91.1732 3.14315C90.1866 3.14315 89.6316 3.87219 89.6316 5.11887C89.6316 6.37553 90.1867 7.09895 91.1732 7.09895C92.1561 7.09894 92.7161 6.37052 92.7161 5.11886Z" fill="white"/>
<path d="M95.4067 2.24461H96.4994V3.15825H96.5842C96.7281 2.8301 96.9708 2.55502 97.2784 2.37135C97.5861 2.18768 97.9433 2.10456 98.3005 2.13359C98.5803 2.11255 98.8613 2.15475 99.1226 2.25705C99.3839 2.35935 99.6189 2.51913 99.8101 2.72457C100.001 2.93 100.144 3.17582 100.227 3.44381C100.31 3.7118 100.332 3.99509 100.291 4.2727V7.99583H99.1561V4.55773C99.1561 3.63348 98.7545 3.17385 97.9151 3.17385C97.7251 3.165 97.5354 3.19733 97.3591 3.26864C97.1827 3.33995 97.0239 3.44854 96.8935 3.58697C96.763 3.72541 96.6641 3.89041 96.6034 4.07066C96.5427 4.25092 96.5217 4.44217 96.5418 4.63131V7.99589H95.4067V2.24461Z" fill="white"/>
<path d="M106.705 0.813232V2.27132H107.951V3.22738H106.705V6.18471C106.705 6.78716 106.953 7.05096 107.518 7.05096C107.662 7.0505 107.807 7.04175 107.951 7.02476V7.97021C107.747 8.00667 107.54 8.02607 107.333 8.02821C106.071 8.02821 105.568 7.58416 105.568 6.47532V3.22733H104.655V2.27127H105.568V0.813232H106.705Z" fill="white"/>
<path d="M109.501 0H110.626V3.16939H110.716C110.867 2.83817 111.116 2.56154 111.43 2.37717C111.744 2.19281 112.107 2.10968 112.469 2.13912C112.748 2.12397 113.026 2.17045 113.285 2.27524C113.543 2.38002 113.775 2.54053 113.964 2.74532C114.153 2.95011 114.295 3.19413 114.379 3.45997C114.463 3.7258 114.487 4.0069 114.45 4.28322V7.99643H113.314V4.56323C113.314 3.64459 112.886 3.17935 112.084 3.17935C111.889 3.16335 111.693 3.19017 111.509 3.25793C111.326 3.32569 111.159 3.43276 111.021 3.57164C110.883 3.71052 110.777 3.87787 110.711 4.06196C110.644 4.24606 110.619 4.44247 110.636 4.63743V7.9964H109.501L109.501 0Z" fill="white"/>
<path d="M121.068 6.44426C120.914 6.9699 120.58 7.42457 120.124 7.72874C119.669 8.03291 119.121 8.16722 118.576 8.10815C118.197 8.11816 117.821 8.04558 117.473 7.89547C117.125 7.74536 116.814 7.52131 116.561 7.23886C116.308 6.95642 116.12 6.62235 116.009 6.25984C115.898 5.89734 115.868 5.51508 115.92 5.1396C115.869 4.76296 115.9 4.37988 116.011 4.01629C116.121 3.6527 116.308 3.31708 116.56 3.03216C116.811 2.74725 117.121 2.51968 117.468 2.36487C117.815 2.21006 118.191 2.13162 118.571 2.13486C120.172 2.13486 121.137 3.22817 121.137 5.03418V5.43023H117.076V5.49384C117.058 5.7049 117.085 5.91734 117.154 6.11754C117.223 6.31775 117.333 6.5013 117.477 6.65643C117.621 6.81155 117.796 6.93483 117.991 7.01836C118.186 7.10189 118.396 7.14382 118.607 7.14147C118.879 7.17406 119.154 7.12517 119.398 7.00102C119.641 6.87686 119.843 6.68305 119.976 6.44423L121.068 6.44426ZM117.076 4.59079H119.981C119.995 4.39776 119.969 4.20388 119.904 4.02159C119.839 3.83931 119.736 3.67266 119.603 3.53234C119.469 3.39203 119.308 3.28116 119.13 3.20686C118.951 3.13255 118.759 3.09646 118.565 3.1009C118.369 3.09843 118.174 3.13529 117.992 3.2093C117.81 3.2833 117.645 3.39297 117.506 3.53182C117.367 3.67067 117.258 3.8359 117.184 4.01777C117.11 4.19965 117.073 4.39448 117.076 4.59079H117.076Z" fill="white"/>
</svg>
