<svg width="137" height="33" viewBox="0 0 137 33" fill="none" xmlns="http://www.w3.org/2000/svg">
<path d="M44.0413 4.04271C44.0627 4.47425 43.996 4.90562 43.8454 5.31056C43.6947 5.7155 43.4632 6.08555 43.165 6.39817C42.8307 6.74481 42.4271 7.01699 41.9804 7.19689C41.5337 7.37679 41.0541 7.46035 40.5729 7.44212C40.0886 7.44646 39.6084 7.35395 39.1604 7.17003C38.7124 6.98611 38.3057 6.71449 37.9641 6.37113C37.6226 6.02778 37.3532 5.61962 37.1717 5.17064C36.9901 4.72167 36.9002 4.24094 36.9071 3.7567C36.9002 3.27246 36.9902 2.79172 37.1718 2.34274C37.3533 1.89375 37.6227 1.48557 37.9642 1.14219C38.3057 0.798796 38.7124 0.527118 39.1604 0.343114C39.6084 0.15911 40.0886 0.0664892 40.5729 0.0706936C41.0708 0.069189 41.5637 0.169854 42.0212 0.366464C42.446 0.538682 42.8242 0.808818 43.1249 1.15487L42.5046 1.77557C42.2683 1.49739 41.9712 1.27722 41.6362 1.13206C41.3013 0.986901 40.9375 0.920631 40.5729 0.938363C40.2059 0.936465 39.8423 1.00866 39.5038 1.15062C39.1653 1.29258 38.859 1.50138 38.6032 1.76453C38.3473 2.02768 38.1472 2.33975 38.0148 2.68206C37.8825 3.02438 37.8205 3.38989 37.8328 3.7567C37.824 4.30614 37.9786 4.84579 38.277 5.30725C38.5753 5.7687 39.004 6.13116 39.5086 6.34866C40.0132 6.56617 40.5711 6.62892 41.1114 6.52897C41.6518 6.42901 42.1502 6.17085 42.5437 5.78722C42.9058 5.39706 43.1156 4.88982 43.1351 4.35789H40.5729V3.51033H43.9919C44.0243 3.68596 44.0408 3.86413 44.0413 4.04271Z" fill="white" stroke="white" stroke-width="0.14112" stroke-miterlimit="10"/>
<path d="M49.4623 1.09584H46.2489V3.33299H49.1465V4.18067H46.2489V6.41782H49.4623V7.2849H45.3428V0.22876H49.4623V1.09584Z" fill="white" stroke="white" stroke-width="0.14112" stroke-miterlimit="10"/>
<path d="M53.2858 7.2849H52.3785V1.09584H50.4077V0.22876H55.2566V1.09584H53.2858V7.2849Z" fill="white" stroke="white" stroke-width="0.14112" stroke-miterlimit="10"/>
<path d="M58.7651 7.2849V0.22876H59.6713V7.2849H58.7651Z" fill="white" stroke="white" stroke-width="0.14112" stroke-miterlimit="10"/>
<path d="M63.6929 7.2849H62.7856V1.09584H60.8149V0.22876H65.6637V1.09584H63.6929V7.2849Z" fill="white" stroke="white" stroke-width="0.14112" stroke-miterlimit="10"/>
<path d="M74.8425 6.37275C74.1557 7.05748 73.2254 7.44199 72.2556 7.44199C71.2858 7.44199 70.3555 7.05748 69.6687 6.37275C69.3289 6.02861 69.0618 5.61967 68.8833 5.17023C68.7047 4.7208 68.6184 4.24005 68.6293 3.75657C68.6184 3.27309 68.7047 2.79234 68.8833 2.3429C69.0618 1.89347 69.3289 1.48452 69.6687 1.14038C70.0082 0.800828 70.4113 0.531555 70.8549 0.34798C71.2986 0.164405 71.7741 0.0701321 72.2543 0.0705581C72.7344 0.0709841 73.2098 0.166101 73.6531 0.350463C74.0964 0.534825 74.499 0.804812 74.8379 1.14497C75.1779 1.4882 75.4455 1.89623 75.6249 2.34485C75.8042 2.79346 75.8916 3.27353 75.8819 3.75657C75.8925 4.24001 75.806 4.72067 75.6275 5.17007C75.449 5.61946 75.182 6.02843 74.8425 6.37275ZM70.3382 5.78191C70.8469 6.28971 71.5363 6.57492 72.255 6.57492C72.9738 6.57492 73.6631 6.28971 74.1718 5.78191C74.4327 5.51486 74.6367 5.1977 74.7715 4.84959C74.9063 4.50148 74.9691 4.12965 74.9562 3.75657C74.9691 3.38348 74.9063 3.01166 74.7715 2.66355C74.6367 2.31544 74.4327 1.99827 74.1718 1.73122C73.6631 1.22342 72.9738 0.938214 72.255 0.938214C71.5363 0.938214 70.8469 1.22342 70.3382 1.73122C70.0777 1.99848 69.8741 2.31571 69.7395 2.66379C69.6049 3.01187 69.5421 3.38359 69.555 3.75657C69.5421 4.12954 69.6049 4.50127 69.7395 4.84934C69.8741 5.19742 70.0777 5.51465 70.3382 5.78191Z" fill="white" stroke="white" stroke-width="0.14112" stroke-miterlimit="10"/>
<path d="M77.1543 7.2849V0.22876H78.258L81.6873 5.71785H81.7263L81.6873 4.35801V0.22876H82.5946V7.2849H81.6482L78.0604 1.52991H78.0214L78.0604 2.88975V7.2849H77.1543Z" fill="white" stroke="white" stroke-width="0.14112" stroke-miterlimit="10"/>
<path d="M68.4061 17.5765C67.4176 17.5802 66.4524 17.8768 65.6324 18.4287C64.8123 18.9805 64.1742 19.763 63.7985 20.6773C63.4229 21.5916 63.3265 22.5967 63.5216 23.5657C63.7168 24.5348 64.1947 25.4242 64.8949 26.1218C65.5952 26.8195 66.4865 27.294 67.4562 27.4854C68.426 27.6769 69.4307 27.5767 70.3436 27.1976C71.2564 26.8184 72.0365 26.1773 72.5853 25.3552C73.134 24.533 73.4269 23.5667 73.4269 22.5782C73.4366 21.9171 73.3132 21.2608 73.0641 20.6483C72.815 20.0358 72.4452 19.4797 71.9768 19.013C71.5084 18.5464 70.9508 18.1787 70.3374 17.9319C69.724 17.6851 69.0672 17.5643 68.4061 17.5765ZM68.4061 25.6097C67.7974 25.6531 67.1896 25.5122 66.6621 25.2054C66.1345 24.8986 65.7116 24.44 65.4483 23.8895C65.185 23.3389 65.0935 22.7218 65.1859 22.1186C65.2782 21.5153 65.55 20.9538 65.9659 20.5072C66.3818 20.0606 66.9225 19.7495 67.5177 19.6145C68.1128 19.4795 68.7349 19.5268 69.3028 19.7503C69.8707 19.9738 70.3581 20.363 70.7017 20.8674C71.0453 21.3718 71.229 21.968 71.229 22.5782C71.2475 22.9638 71.1886 23.3491 71.0559 23.7116C70.9232 24.0741 70.7194 24.4063 70.4563 24.6888C70.1933 24.9713 69.8764 25.1983 69.5243 25.3564C69.1722 25.5146 68.792 25.6007 68.4061 25.6097ZM57.4533 17.5765C56.4648 17.5802 55.4997 17.8767 54.6796 18.4286C53.8595 18.9805 53.2213 19.763 52.8457 20.6773C52.47 21.5915 52.3736 22.5967 52.5687 23.5657C52.7639 24.5347 53.2417 25.4242 53.942 26.1218C54.6423 26.8194 55.5336 27.2939 56.5033 27.4854C57.4731 27.6769 58.4778 27.5767 59.3907 27.1976C60.3035 26.8184 61.0836 26.1773 61.6324 25.3552C62.1811 24.533 62.474 23.5667 62.474 22.5782C62.4837 21.9171 62.3603 21.2608 62.1112 20.6483C61.8621 20.0358 61.4923 19.4797 61.0239 19.0131C60.5555 18.5464 59.998 18.1788 59.3846 17.932C58.7712 17.6852 58.1144 17.5643 57.4533 17.5765ZM57.4533 25.6097C56.8446 25.6531 56.2369 25.5122 55.7093 25.2054C55.1818 24.8986 54.7588 24.44 54.4955 23.8895C54.2322 23.3389 54.1408 22.7218 54.2331 22.1186C54.3254 21.5153 54.5972 20.9538 55.0131 20.5072C55.429 20.0606 55.9697 19.7495 56.5649 19.6145C57.1601 19.4795 57.7821 19.5268 58.35 19.7503C58.9179 19.9738 59.4053 20.363 59.7489 20.8674C60.0925 21.3718 60.2762 21.968 60.2762 22.5782C60.2947 22.9638 60.2359 23.3491 60.1032 23.7116C59.9705 24.0741 59.7666 24.4063 59.5036 24.6888C59.2405 24.9713 58.9236 25.1983 58.5715 25.3564C58.2194 25.5146 57.8392 25.6007 57.4533 25.6097ZM44.4244 19.1112V21.2331H49.5021C49.4288 22.2284 49.0216 23.1697 48.3463 23.9046C47.8375 24.4232 47.2255 24.8294 46.55 25.097C45.8745 25.3646 45.1504 25.4876 44.4244 25.4581C42.9402 25.438 41.5237 24.8343 40.4812 23.7777C39.4388 22.721 38.8543 21.2964 38.8543 19.8121C38.8543 18.3278 39.4388 16.9032 40.4812 15.8466C41.5237 14.7899 42.9402 14.1862 44.4244 14.1661C45.85 14.1475 47.2253 14.6922 48.2516 15.6818L49.7484 14.1851C49.0481 13.4918 48.2165 12.9454 47.3023 12.5777C46.3881 12.2101 45.4096 12.0287 44.4244 12.0441C43.3948 12.0291 42.3724 12.219 41.4168 12.6026C40.4612 12.9863 39.5915 13.5561 38.858 14.2789C38.1246 15.0017 37.5422 15.8631 37.1447 16.813C36.7472 17.7629 36.5425 18.7824 36.5425 19.8121C36.5425 20.8418 36.7472 21.8613 37.1447 22.8112C37.5422 23.7611 38.1246 24.6225 38.858 25.3453C39.5915 26.0681 40.4612 26.6379 41.4168 27.0216C42.3724 27.4052 43.3948 27.5951 44.4244 27.5801C45.4304 27.6218 46.4338 27.4491 47.368 27.0735C48.3023 26.6978 49.1459 26.1278 49.843 25.4013C51.0807 24.0503 51.7404 22.2686 51.6809 20.4374C51.6858 19.9927 51.6476 19.5486 51.5671 19.1112H44.4244ZM97.708 20.7594C97.4074 19.8534 96.8352 19.062 96.0691 18.4925C95.3031 17.923 94.3803 17.6032 93.4261 17.5765C92.7834 17.5805 92.1483 17.7147 91.559 17.9712C90.9697 18.2276 90.4385 18.6008 89.9976 19.0684C89.5566 19.5359 89.215 20.088 88.9935 20.6912C88.7719 21.2945 88.675 21.9365 88.7086 22.5782C88.6941 23.2358 88.8123 23.8896 89.0562 24.5005C89.3 25.1114 89.6645 25.6669 90.1278 26.1338C90.5912 26.6007 91.1439 26.9694 91.7529 27.2179C92.3619 27.4664 93.0148 27.5896 93.6725 27.5801C94.4965 27.5847 95.3087 27.3845 96.0362 26.9976C96.7637 26.6107 97.3837 26.0492 97.8405 25.3634L96.1354 24.2267C95.88 24.6509 95.5186 25.0014 95.0869 25.2439C94.6551 25.4864 94.1677 25.6124 93.6725 25.6097C93.1629 25.6292 92.6592 25.4951 92.2268 25.2248C91.7943 24.9546 91.4531 24.5606 91.2473 24.094L97.9355 21.3279L97.708 20.7594ZM90.8874 22.4268C90.8639 22.0627 90.9132 21.6976 91.0324 21.3529C91.1517 21.0081 91.3385 20.6906 91.5819 20.4189C91.8254 20.1472 92.1206 19.9268 92.4502 19.7706C92.7799 19.6143 93.1374 19.5254 93.5018 19.5091C93.8813 19.4841 94.2598 19.5714 94.59 19.7601C94.9202 19.9487 95.1875 20.2304 95.3587 20.5701L90.8874 22.4268ZM85.4497 27.2769H87.6475V12.5747H85.4497V27.2769ZM81.8499 18.6943H81.7742C81.4401 18.3313 81.0323 18.0438 80.5781 17.851C80.1239 17.6582 79.6338 17.5646 79.1406 17.5765C77.8509 17.6314 76.6322 18.1823 75.739 19.1144C74.8458 20.0464 74.3471 21.2874 74.3471 22.5783C74.3471 23.8692 74.8458 25.1102 75.739 26.0422C76.6322 26.9742 77.8509 27.5252 79.1406 27.5801C79.6358 27.5933 80.1279 27.4984 80.5827 27.3021C81.0375 27.1058 81.4441 26.8127 81.7742 26.4434H81.8499V27.1633C81.8499 29.0769 80.8269 30.1 79.1785 30.1C78.6291 30.0868 78.0961 29.9104 77.6474 29.5932C77.1986 29.2761 76.8544 28.8325 76.6587 28.319L74.7451 29.1148C75.1058 29.9929 75.7204 30.7433 76.5103 31.2699C77.3001 31.7965 78.2292 32.0752 79.1785 32.0704C81.7552 32.0704 83.9341 30.5547 83.9341 26.8601V17.8796H81.8499V18.6943ZM79.3302 25.6097C78.5705 25.5453 77.8628 25.198 77.347 24.6366C76.8312 24.0752 76.545 23.3407 76.545 22.5783C76.545 21.8159 76.8312 21.0814 77.347 20.52C77.8628 19.9586 78.5705 19.6113 79.3302 19.5469C79.7081 19.5654 80.0784 19.6597 80.4191 19.8244C80.7598 19.989 81.0638 20.2205 81.3131 20.5052C81.5624 20.7898 81.7518 21.1217 81.8701 21.4812C81.9884 21.8406 82.0331 22.2201 82.0015 22.5972C82.0311 22.9719 81.9847 23.3487 81.8653 23.7051C81.7458 24.0615 81.5557 24.3902 81.3064 24.6714C81.057 24.9526 80.7534 25.1807 80.4139 25.3419C80.0743 25.5031 79.7057 25.5942 79.3302 25.6097ZM108.003 12.575H102.745V27.2769H104.939V21.7068H108.003C108.623 21.7408 109.245 21.648 109.828 21.4339C110.412 21.2198 110.945 20.889 111.397 20.4616C111.848 20.0343 112.208 19.5195 112.453 18.9485C112.699 18.3775 112.826 17.7625 112.826 17.1409C112.826 16.5193 112.699 15.9043 112.453 15.3333C112.208 14.7623 111.848 14.2475 111.397 13.8201C110.945 13.3928 110.412 13.062 109.828 12.8479C109.245 12.6338 108.623 12.541 108.003 12.575ZM108.059 19.6608H104.939V14.6211H108.059C108.395 14.6142 108.728 14.6742 109.04 14.7977C109.352 14.9213 109.636 15.1058 109.875 15.3404C110.115 15.5751 110.305 15.8552 110.435 16.1644C110.565 16.4736 110.632 16.8056 110.632 17.141C110.632 17.4763 110.565 17.8083 110.435 18.1175C110.305 18.4267 110.115 18.7068 109.875 18.9415C109.636 19.1761 109.352 19.3606 109.04 19.4842C108.728 19.6077 108.395 19.6677 108.059 19.6608ZM121.621 17.5494C120.82 17.5027 120.023 17.6908 119.327 18.0906C118.632 18.4904 118.068 19.0846 117.706 19.8002L119.654 20.6136C119.847 20.2584 120.14 19.9672 120.496 19.7757C120.852 19.5842 121.256 19.5007 121.659 19.5354C122.215 19.4811 122.771 19.6496 123.203 20.0042C123.636 20.3587 123.91 20.8703 123.966 21.4268V21.5781C123.262 21.2038 122.476 21.0089 121.678 21.0107C119.578 21.0107 117.441 22.1645 117.441 24.3208C117.461 24.7752 117.573 25.2209 117.769 25.6314C117.965 26.0419 118.241 26.4089 118.582 26.7106C118.922 27.0122 119.32 27.2424 119.751 27.3875C120.182 27.5325 120.638 27.5895 121.091 27.5551C121.644 27.5876 122.195 27.4714 122.687 27.2186C123.18 26.9658 123.595 26.5856 123.891 26.1176H123.966V27.2525H126.085V21.616C126.085 19.0058 124.137 17.5494 121.621 17.5494ZM121.356 25.6069C120.637 25.6069 119.635 25.2476 119.635 24.3585C119.635 23.2238 120.883 22.7886 121.961 22.7886C122.662 22.77 123.354 22.9398 123.966 23.2804C123.886 23.9181 123.577 24.5051 123.097 24.9327C122.617 25.3604 121.999 25.5999 121.356 25.6069ZM133.802 17.871L131.286 24.245H131.21L128.6 17.871H126.236L130.151 26.7796L127.919 31.7351H130.208L136.242 17.871H133.802ZM114.036 27.2769H116.23V12.575H114.036V27.2769Z" fill="white"/>
<path d="M0.548538 0.861014C0.162903 1.3221 -0.0318156 1.9132 0.0042742 2.51321V28.5223C-0.0319204 29.1223 0.162811 29.7134 0.548538 30.1745L0.635564 30.2592L15.2053 15.6896V15.3459L0.635564 0.775635L0.548538 0.861014Z" fill="url(#paint0_linear_4031_1013)"/>
<path d="M20.0618 20.5483L15.2056 15.6897V15.346L20.063 10.4885L20.1725 10.551L25.9265 13.8204C27.5702 14.7542 27.5702 16.2821 25.9265 17.2164L20.1725 20.4859L20.0618 20.5483Z" fill="url(#paint1_linear_4031_1013)"/>
<path d="M20.1725 20.4852L15.2056 15.5178L0.548828 30.1745C0.883723 30.4699 1.31139 30.6388 1.75773 30.6519C2.20408 30.6651 2.64097 30.5218 2.99272 30.2467L20.1725 20.4852Z" fill="url(#paint2_linear_4031_1013)"/>
<path d="M20.1725 10.5506L2.99272 0.789148C2.64097 0.514069 2.20408 0.370704 1.75773 0.383892C1.31139 0.397079 0.883723 0.565989 0.548828 0.861356L15.2056 15.5181L20.1725 10.5506Z" fill="url(#paint3_linear_4031_1013)"/>
<defs>
<linearGradient id="paint0_linear_4031_1013" x1="13.9133" y1="2.23897" x2="-5.82324" y2="21.9755" gradientUnits="userSpaceOnUse">
<stop stop-color="#00A0FF"/>
<stop offset="0.00657" stop-color="#00A1FF"/>
<stop offset="0.2601" stop-color="#00BEFF"/>
<stop offset="0.5122" stop-color="#00D2FF"/>
<stop offset="0.7604" stop-color="#00DFFF"/>
<stop offset="1" stop-color="#00E3FF"/>
</linearGradient>
<linearGradient id="paint1_linear_4031_1013" x1="28.0665" y1="15.5184" x2="-0.389582" y2="15.5184" gradientUnits="userSpaceOnUse">
<stop stop-color="#FFE000"/>
<stop offset="0.4087" stop-color="#FFBD00"/>
<stop offset="0.7754" stop-color="#FFA500"/>
<stop offset="1" stop-color="#FF9C00"/>
</linearGradient>
<linearGradient id="paint2_linear_4031_1013" x1="17.4736" y1="18.2169" x2="-9.29065" y2="44.9812" gradientUnits="userSpaceOnUse">
<stop stop-color="#FF3A44"/>
<stop offset="1" stop-color="#C31162"/>
</linearGradient>
<linearGradient id="paint3_linear_4031_1013" x1="-3.14161" y1="-7.79632" x2="8.80975" y2="4.15504" gradientUnits="userSpaceOnUse">
<stop stop-color="#32A071"/>
<stop offset="0.0685" stop-color="#2DA771"/>
<stop offset="0.4762" stop-color="#15CF74"/>
<stop offset="0.8009" stop-color="#06E775"/>
<stop offset="1" stop-color="#00F076"/>
</linearGradient>
</defs>
</svg>
