<svg width="294" height="113" viewBox="0 0 294 113" fill="none" xmlns="http://www.w3.org/2000/svg">
<rect width="294" height="113" rx="15" fill="#2F2F2F"/>
<path d="M77.3884 33.9817C78.8566 35.0539 79.3927 36.8795 79.6715 38.5847C80.11 42.0101 79.8623 45.6535 79.1648 49.0267C78.9101 50.3393 78.9378 51.4964 79.5413 52.7034C80.5074 53.8 81.7244 54.2789 83.0424 54.8367C90.3164 58.0233 90.3164 58.0233 91.8514 61.0607C92.1237 62.4978 91.7947 64.0331 91.0483 65.2771C88.8203 67.4959 84.4918 67.4759 81.5938 67.5005C80.2337 67.4976 78.8884 67.4098 77.5335 67.2974C77.1979 67.2712 77.1979 67.2712 76.8555 67.2444C75.6923 67.1515 74.5364 67.0396 73.38 66.8833C73.2873 67.0732 73.1946 67.2632 73.0992 67.4589C71.4462 70.8236 69.7271 74.0023 67.3566 76.9221C67.197 77.1191 67.0373 77.316 66.8727 77.519C65.479 79.1487 63.5451 80.8687 61.3333 81.1384C59.3128 81.2271 57.3422 80.6051 55.7869 79.3064C53.4784 76.9787 53.1316 73.3121 53.0924 70.1681C53.0967 69.2283 53.1055 68.2886 53.1207 67.3489C53.1621 64.6173 52.835 62.8325 51.3572 60.5337C50.4726 59.6252 49.3822 58.9686 48.3173 58.2891C43.1165 54.9377 43.1165 54.9377 42.5246 52.4579C42.3961 51.1931 42.783 49.9129 43.4014 48.8133C45.7796 46.7566 49.4474 46.8435 52.4054 47.0402C54.5252 47.2016 56.6359 47.3955 58.7232 47.8095C58.7943 47.5672 58.7943 47.5672 58.8668 47.3201C59.186 46.4352 59.6003 45.6276 60.0408 44.7978C60.1301 44.6294 60.2194 44.461 60.3114 44.2875C62.5509 40.118 65.4713 35.62 69.766 33.3535C69.9581 33.246 69.9581 33.246 70.1542 33.1363C72.4857 32.0382 75.2689 32.7639 77.3884 33.9817ZM71.573 36.7667C68.877 38.6086 67.2866 41.8134 65.7504 44.597C65.6689 44.7429 65.5874 44.8888 65.5035 45.0392C64.777 46.342 64.1393 47.5666 63.7427 49.0141C64.9745 49.331 66.2069 49.6453 67.4398 49.9577C67.8589 50.0642 68.2777 50.1713 68.6965 50.2791C69.2996 50.4341 69.9033 50.587 70.5071 50.7395C70.6931 50.7879 70.8791 50.8362 71.0707 50.8859C72.2893 51.1908 73.3915 51.4353 74.6097 50.9968C75.5739 50.368 76.0528 49.9048 76.3653 48.7976C76.7285 47.038 76.8885 45.3601 76.8717 43.5642C76.8684 43.1519 76.8717 42.74 76.8755 42.3277C76.8792 40.1236 76.709 38.0599 75.3266 36.2695C73.9893 35.0678 72.8997 35.9585 71.573 36.7667ZM46.0743 51.0219C47.5832 52.7162 49.643 54.313 51.9831 54.4673C53.5662 54.4056 54.7983 53.704 55.9351 52.6281C56.582 51.9209 56.9728 51.3154 57.3178 50.4196C55.5383 50.0611 53.8227 49.9505 52.0098 49.9553C51.7648 49.952 51.5198 49.9488 51.2674 49.9455C48.4766 49.8879 48.4766 49.8879 46.0743 51.0219ZM62.538 51.4234C61.8277 53.1696 61.5306 55.0387 62.2745 56.8319C63.1816 58.552 64.3786 59.5947 66.2358 60.2204C68.3106 60.8544 70.4205 61.3992 72.5769 61.6631C73.9873 58.7512 73.9873 58.7512 73.9823 55.6398C72.983 53.9009 71.1835 53.4636 69.3574 52.9646C68.9073 52.8445 68.4569 52.7263 68.006 52.6096C67.5447 52.49 67.0842 52.3677 66.6237 52.245C66.3261 52.1668 66.0285 52.0887 65.7308 52.0109C65.5955 51.9749 65.4601 51.9389 65.3206 51.9019C64.3934 51.6637 63.4875 51.5263 62.538 51.4234ZM77.2802 57.5236C76.1441 58.8536 75.7114 60.6288 75.187 62.2654C75.9773 62.3964 76.7679 62.5255 77.5586 62.6544C77.7795 62.691 78.0004 62.7277 78.228 62.7654C83.5535 63.6925 83.5535 63.6925 88.639 62.4662C87.4629 59.7024 83.8012 58.2105 81.2103 57.0452C79.78 56.5167 78.4715 56.4772 77.2802 57.5236ZM58.8362 65.6912C57.1345 67.6419 57.3637 71.0682 57.5186 73.5089C57.726 75.1373 58.0624 76.8215 59.1248 78.1268C60.0374 78.431 60.6728 78.0961 61.5341 77.7252C65.4812 75.6912 68.3758 70.9967 70.1675 67.0841C70.241 66.8181 70.3098 66.5506 70.3683 66.2809C69.5005 66.0445 68.6318 65.812 67.7617 65.5843C67.4036 65.4902 67.046 65.394 66.6884 65.2975C64.1342 64.6493 61.1512 64.1084 58.8362 65.6912Z" fill="#00FFA6"/>
<path d="M102.292 41.1838C104.213 41.1838 106.135 41.1838 108.115 41.1838C108.823 42.2466 109.507 43.2795 110.151 44.375C110.225 44.4997 110.299 44.6244 110.374 44.7528C110.531 45.0188 110.688 45.2848 110.845 45.5509C111.267 46.2681 111.691 46.9843 112.115 47.7004C112.201 47.8456 112.287 47.9909 112.376 48.1405C113.187 49.5088 114.012 50.8685 114.841 52.2265C116.269 54.5698 117.675 56.926 119.073 59.2874C119.15 59.4174 119.227 59.5475 119.307 59.6814C119.514 60.0321 119.722 60.3829 119.929 60.7337C120.472 61.6476 121.02 62.5586 121.567 63.47C121.633 56.1156 121.699 48.7611 121.767 41.1838C123.424 41.1838 125.08 41.1838 126.787 41.1838C126.787 51.4535 126.787 61.7233 126.787 72.3042C121.165 72.3042 121.165 72.3042 120.019 71.3388C119.682 70.7036 119.682 70.7036 119.396 70.0078C119.277 69.7679 119.155 69.5292 119.031 69.2917C118.779 68.8018 118.538 68.3086 118.305 67.8094C117.774 66.6906 117.11 65.6515 116.459 64.5994C116.21 64.1833 115.96 63.7669 115.712 63.35C114.9 61.9939 114.08 60.6422 113.259 59.2914C113.154 59.1182 113.154 59.1182 113.047 58.9415C112.689 58.3528 112.331 57.7642 111.973 57.1755C111.272 56.0229 110.572 54.8698 109.872 53.7167C109.651 53.3519 109.429 52.9871 109.208 52.6223C109.006 52.2901 109.006 52.2901 108.8 51.9512C108.682 51.7567 108.564 51.5623 108.442 51.3619C108.131 50.8478 107.821 50.3325 107.512 49.8172C107.446 57.2379 107.38 64.6586 107.311 72.3042C105.655 72.3042 103.999 72.3042 102.292 72.3042C102.292 62.0345 102.292 51.7647 102.292 41.1838Z" fill="white"/>
<path d="M148.519 51.0109C148.849 51.338 149.164 51.6804 149.474 52.0257C149.574 50.7337 149.574 50.7337 149.675 49.4156C151.332 49.4156 152.988 49.4156 154.695 49.4156C154.695 56.9689 154.695 64.5221 154.695 72.3042C153.038 72.3042 151.382 72.3042 149.675 72.3042C149.609 71.2441 149.543 70.184 149.474 69.0918C149.28 69.332 149.085 69.5721 148.885 69.8196C147.281 71.6389 145.077 72.7266 142.648 72.9065C142.52 72.9169 142.392 72.9272 142.26 72.9379C139.424 73.0628 136.688 72.0782 134.554 70.2337C132.027 67.7993 130.663 64.916 130.535 61.4022C130.47 57.8717 131.414 54.5707 133.902 51.963C137.682 48.2389 144.359 47.4012 148.519 51.0109ZM137.661 55.5401C136.106 57.337 135.508 59.0775 135.559 61.4317C135.766 63.5444 136.665 65.2169 138.221 66.6385C140.034 68.0917 141.748 68.2981 144.053 68.0879C145.985 67.6893 147.549 66.3043 148.659 64.7123C149.747 62.7562 149.876 60.6676 149.343 58.5259C148.731 56.7192 147.354 55.1625 145.694 54.2264C142.811 52.9508 139.945 53.2777 137.661 55.5401Z" fill="white"/>
<path d="M223.561 51.0219C225.926 52.9493 227.262 55.6567 227.727 58.6514C227.853 60.0486 227.917 61.5047 227.577 62.8677C221.746 62.934 215.916 63.0002 209.908 63.0685C210.81 65.2324 211.397 66.5982 213.492 67.5295C215.638 68.3097 217.974 68.2941 220.076 67.3601C221.149 66.7349 222.07 65.9075 222.758 64.8755C223.709 65.1653 224.563 65.5526 225.443 66.0049C225.572 66.0701 225.701 66.1353 225.833 66.2025C226.147 66.3618 226.46 66.522 226.774 66.6825C226.389 68.0822 225.562 68.8797 224.565 69.8949C224.453 70.0119 224.341 70.1289 224.225 70.2494C222.194 72.184 219.148 72.8858 216.421 72.9819C212.944 72.8679 209.918 71.4987 207.526 68.9985C205.314 66.3731 204.515 63.0727 204.739 59.6898C205.1 56.4812 206.31 53.6478 208.704 51.4234C213.041 48.1331 219.1 47.7443 223.561 51.0219ZM211.514 55.2382C210.627 56.3156 209.908 57.4301 209.908 58.8522C214.149 58.8522 218.389 58.8522 222.758 58.8522C222.293 56.7602 221.729 55.4528 219.947 54.2343C217.237 52.7517 213.809 53.2066 211.514 55.2382Z" fill="white"/>
<path d="M249.019 50.4603C251.058 52.0304 252.018 54.5028 252.381 56.9815C252.535 58.4305 252.498 59.8887 252.493 61.3438C252.492 61.6609 252.492 61.9779 252.492 62.2949C252.491 63.1237 252.489 63.9525 252.487 64.7813C252.485 65.6293 252.484 66.4772 252.483 67.3252C252.481 68.9849 252.477 70.6445 252.473 72.3042C250.817 72.3042 249.16 72.3042 247.454 72.3042C247.452 71.89 247.45 71.4759 247.448 71.0491C247.441 69.6731 247.43 68.2972 247.417 66.9213C247.409 66.0879 247.402 65.2545 247.399 64.4211C247.396 63.6152 247.389 62.8095 247.38 62.0036C247.377 61.6978 247.375 61.392 247.375 61.0862C247.373 59.0348 247.256 57.063 245.998 55.3511C244.92 54.3461 243.576 53.7481 242.083 53.7771C240.391 53.9857 238.579 54.5417 237.415 55.8405C236.55 57.2098 236.19 58.3856 236.169 59.9959C236.166 60.1958 236.166 60.1958 236.163 60.3997C236.157 60.8386 236.152 61.2775 236.147 61.7164C236.143 62.0213 236.138 62.3263 236.134 62.6312C236.123 63.4326 236.113 64.2341 236.103 65.0355C236.093 65.8538 236.082 66.672 236.071 67.4903C236.049 69.0949 236.029 70.6996 236.009 72.3042C234.353 72.3042 232.697 72.3042 230.99 72.3042C230.99 64.751 230.99 57.1978 230.99 49.4157C232.646 49.4157 234.303 49.4157 236.009 49.4157C236.076 50.277 236.142 51.1383 236.21 52.0258C236.475 51.6945 236.74 51.3632 237.013 51.0219C240.523 48.3137 245.275 47.9534 249.019 50.4603Z" fill="white"/>
<path d="M177.777 50.9262C179.504 52.4752 180.436 54.9623 180.628 57.2417C180.678 58.3146 180.664 59.3878 180.654 60.4615C180.653 60.8047 180.652 61.1479 180.651 61.491C180.649 62.3862 180.643 63.2813 180.636 64.1764C180.63 65.0931 180.627 66.0097 180.624 66.9264C180.618 68.719 180.607 70.5116 180.595 72.3042C179.005 72.3042 177.415 72.3042 175.776 72.3042C175.772 71.9133 175.768 71.5224 175.764 71.1197C175.75 69.8214 175.735 68.5232 175.718 67.225C175.708 66.4387 175.699 65.6523 175.692 64.866C175.684 64.1057 175.675 63.3454 175.664 62.5852C175.66 62.2966 175.657 62.0079 175.655 61.7193C175.634 59.2795 175.588 56.9969 173.969 55.0374C172.793 54.0398 171.466 53.7955 169.954 53.8327C168.307 53.9866 166.79 54.683 165.662 55.9033C164.543 57.3289 164.315 58.9991 164.291 60.7708C164.287 61.028 164.283 61.2852 164.279 61.5501C164.275 61.8278 164.272 62.1054 164.268 62.383C164.264 62.6694 164.26 62.9558 164.256 63.2421C164.245 63.9927 164.235 64.7433 164.225 65.4939C164.215 66.261 164.204 67.0282 164.193 67.7954C164.171 69.2983 164.151 70.8013 164.131 72.3042C162.541 72.3042 160.951 72.3042 159.312 72.3042C159.312 64.751 159.312 57.1978 159.312 49.4157C160.903 49.4157 162.493 49.4157 164.131 49.4157C164.231 50.807 164.231 50.807 164.332 52.2265C164.506 51.9905 164.68 51.7545 164.859 51.5113C168.124 47.7748 174.111 48.0839 177.777 50.9262Z" fill="white"/>
<path d="M199.468 50.4195C200.783 51.482 201.548 52.6432 202.078 54.2343C202.078 54.8306 202.078 55.4269 202.078 56.0413C200.554 56.0413 199.03 56.0413 197.46 56.0413C197.195 55.5112 196.93 54.9812 196.657 54.435C195.94 53.7637 195.032 53.3025 194.047 53.2304C193.917 53.2203 193.788 53.2102 193.655 53.1998C192.233 53.1377 190.832 53.3467 189.705 54.2594C189.315 55.0747 189.253 55.7573 189.429 56.6436C189.832 57.3064 190.18 57.5681 190.92 57.8006C192.781 58.2496 194.654 58.6188 196.536 58.9674C198.391 59.3333 200.318 59.8643 201.676 61.2615C202.845 63.0599 203.043 64.5395 202.881 66.6824C202.446 68.6428 201.509 70.1163 199.857 71.2501C198.206 72.235 196.363 72.783 194.448 72.9065C194.292 72.9169 194.135 72.9272 193.973 72.9379C191.04 73.0423 188.159 72.3588 185.828 70.5223C184.525 69.2958 183.927 67.8227 183.606 66.0801C183.606 65.7488 183.606 65.4175 183.606 65.0762C185.13 65.0762 186.654 65.0762 188.224 65.0762C188.721 66.0701 188.721 66.0701 189.228 67.084C190.913 68.4548 192.721 68.6098 194.837 68.3977C195.887 68.2116 196.652 67.8289 197.46 67.1467C197.778 66.4124 197.86 65.6533 197.661 64.8754C196.953 63.9754 196.342 63.7027 195.239 63.4575C195.101 63.4256 194.963 63.3938 194.822 63.3609C194.026 63.1809 193.227 63.0257 192.426 62.8755C190.528 62.5191 188.748 62.169 187.02 61.2615C186.883 61.19 186.746 61.1186 186.605 61.045C185.461 60.3434 184.714 59.1306 184.28 57.8757C183.93 55.7685 184.098 53.7775 185.308 51.9904C188.467 48.0248 195.422 47.75 199.468 50.4195Z" fill="white"/>
</svg>
