<svg width="294" height="113" viewBox="0 0 294 113" fill="none" xmlns="http://www.w3.org/2000/svg">
<rect width="294" height="113" rx="15" fill="#2F2F2F"/>
<g clip-path="url(#clip0_364_23711)">
<path d="M50.8509 52.4902L59.3296 43.9481L67.8118 52.4972L72.7425 47.5241L59.3296 34.002L45.9167 47.5206L50.8509 52.4902Z" fill="#F3BA2F"/>
<path d="M37.4983 56.0027L42.4306 51.0314L47.363 56.0027L42.4306 60.9739L37.4983 56.0027Z" fill="#F3BA2F"/>
<path d="M50.8508 59.5137L59.3296 68.0593L67.8117 59.5102L72.7459 64.4763L72.7424 64.4798L59.3296 78.0019L45.9167 64.4867L45.9098 64.4798L50.8508 59.5137Z" fill="#F3BA2F"/>
<path d="M71.2878 56.0039L76.2202 51.0327L81.1525 56.0039L76.2202 60.9752L71.2878 56.0039Z" fill="#F3BA2F"/>
<path d="M64.3327 56.0002L59.3296 50.9542L55.6298 54.6831L55.2023 55.1105L54.3265 55.9933L54.3196 56.0002L54.3265 56.0106L59.3296 61.0497L64.3327 56.0037L64.3361 56.0002H64.3327Z" fill="#F3BA2F"/>
<path d="M88.8483 44.6639H99.5786C102.24 44.6639 104.254 45.359 105.62 46.7491C106.134 47.2626 106.539 47.8761 106.812 48.5523C107.084 49.2286 107.217 49.9535 107.202 50.6831V50.7491C107.211 51.3468 107.129 51.9423 106.957 52.5145C106.805 53.0071 106.583 53.4752 106.299 53.9046C106.034 54.3095 105.714 54.6746 105.347 54.9889C104.989 55.2995 104.597 55.5677 104.178 55.7882C105.386 56.212 106.471 56.928 107.34 57.8733C108.108 58.7537 108.492 59.9701 108.492 61.5223V61.5884C108.514 62.5578 108.304 63.5184 107.881 64.3894C107.472 65.1919 106.871 65.8797 106.133 66.3911C105.299 66.9548 104.37 67.361 103.392 67.5901C102.23 67.8679 101.038 68.0021 99.8441 67.9897H88.8483V44.6639ZM98.5028 54.0957C99.4311 54.141 100.355 53.9396 101.182 53.5119C101.504 53.3221 101.768 53.045 101.942 52.7121C102.116 52.3792 102.195 52.0038 102.168 51.6283V51.5623C102.185 51.2163 102.115 50.8717 101.965 50.56C101.815 50.2484 101.59 49.98 101.309 49.7795C100.737 49.3694 99.9107 49.1644 98.8303 49.1644H93.81V54.0957H98.5028ZM99.8579 63.4963C100.783 63.5485 101.703 63.3352 102.513 62.8811C102.828 62.6769 103.083 62.3913 103.252 62.0539C103.421 61.7165 103.496 61.3397 103.471 60.9628V60.8968C103.484 60.5385 103.409 60.1826 103.253 59.8603C103.098 59.538 102.866 59.2591 102.578 59.048C101.985 58.5846 101.027 58.3529 99.7027 58.3529H93.81V63.4963H99.8579Z" fill="#F3BA2F"/>
<path d="M114.884 44.6639H119.977V67.9967H114.884V44.6639Z" fill="#F3BA2F"/>
<path d="M127.683 44.6639H132.38L143.234 59.0236V44.6639H148.261V67.9967H143.927L132.718 53.1644V67.9967H127.683V44.6639Z" fill="#F3BA2F"/>
<path d="M163.681 44.4971H168.37L178.29 67.9967H172.973L170.856 62.763H161.067L158.95 67.9967H153.758L163.681 44.4971ZM169.039 58.2313L165.957 50.6622L162.888 58.2313H169.039Z" fill="#F3BA2F"/>
<path d="M183.797 44.6639H188.493L199.341 59.0236V44.6639H204.368V67.9967H200.034L188.824 53.1644V67.9967H183.797V44.6639Z" fill="#F3BA2F"/>
<path d="M222.698 68.4068C221.075 68.4208 219.465 68.104 217.967 67.4754C216.556 66.8883 215.276 66.0225 214.203 64.9291C213.129 63.8357 212.283 62.5367 211.716 61.1088C211.117 59.6152 210.813 58.0178 210.823 56.4068V56.3408C210.796 53.1652 212.008 50.1062 214.198 47.8229C215.276 46.7077 216.566 45.8235 217.991 45.2235C219.541 44.5762 221.206 44.2535 222.884 44.2747C223.876 44.2673 224.867 44.3569 225.842 44.5423C226.677 44.7014 227.492 44.9471 228.277 45.2756C228.988 45.5775 229.665 45.9574 230.294 46.4085C230.908 46.8485 231.484 47.339 232.018 47.8751L228.78 51.6422C227.953 50.8729 227.024 50.2216 226.022 49.7065C225.036 49.2317 223.955 48.9938 222.863 49.0115C221.954 49.0017 221.054 49.1869 220.222 49.5548C219.389 49.9227 218.644 50.4649 218.036 51.1453C217.433 51.8239 216.96 52.61 216.643 53.4633C216.311 54.3649 216.144 55.3199 216.15 56.2817V56.3477C216.147 57.3081 216.314 58.2614 216.643 59.1627C216.956 60.0189 217.424 60.8095 218.022 61.4945C218.626 62.1834 219.369 62.7335 220.202 63.1076C221.035 63.4818 221.938 63.6712 222.849 63.6631C224.01 63.7 225.163 63.4481 226.204 62.9298C227.196 62.3851 228.113 61.7122 228.932 60.9281L232.173 64.2296C231.601 64.8556 230.982 65.4365 230.321 65.9672C229.672 66.4841 228.968 66.926 228.221 67.2843C227.426 67.6618 226.587 67.9407 225.725 68.1149C224.728 68.3162 223.714 68.4141 222.698 68.4068Z" fill="#F3BA2F"/>
<path d="M238.183 44.6639H255.606V49.2304H243.193V53.9637H254.123V58.5301H243.21V63.4302H255.778V67.9967H238.193L238.183 44.6639Z" fill="#F3BA2F"/>
</g>
<defs>
<clipPath id="clip0_364_23711">
<rect width="218.275" height="44" fill="white" transform="translate(37.5 34.002)"/>
</clipPath>
</defs>
</svg>
