<svg width="295" height="113" viewBox="0 0 295 113" fill="none" xmlns="http://www.w3.org/2000/svg">
<rect y="0.00195312" width="294" height="113" rx="15" fill="#F5F5F5"/>
<path d="M83.94 65.7994H88.9125V46.2919H95.415V41.5744H77.48V46.2919H83.94V65.7994ZM95.415 65.7994H100.09V57.6394C100.09 54.7919 101.535 53.0919 103.787 53.0919C104.552 53.0919 105.19 53.2194 105.912 53.4744V48.7144C105.402 48.5869 104.85 48.5019 104.34 48.5019C102.427 48.5019 100.685 49.7769 100.09 51.4344V48.7144H95.415V65.7994ZM114.88 66.1819C117.217 66.1819 119.002 64.9919 119.81 63.8869V65.7994H124.485V48.7569H119.81V50.6694C119.045 49.5644 117.26 48.3744 114.88 48.3744C110.332 48.3744 106.847 52.4544 106.847 57.2994C106.847 62.1019 110.332 66.1819 114.88 66.1819ZM115.857 61.9319C113.265 61.9319 111.565 59.9769 111.565 57.2994C111.565 54.6219 113.265 52.6669 115.857 52.6669C118.45 52.6669 120.15 54.6219 120.15 57.2994C120.15 59.9769 118.45 61.9319 115.857 61.9319ZM135.577 66.1819C137.915 66.1819 139.7 64.9919 140.507 63.8869V65.7994H145.182V40.2144H140.507V50.6694C139.742 49.5644 137.957 48.3744 135.577 48.3744C131.03 48.3744 127.545 52.4544 127.545 57.2994C127.587 62.1019 131.03 66.1819 135.577 66.1819ZM136.597 61.9319C134.005 61.9319 132.305 59.9769 132.305 57.2994C132.305 54.6219 134.005 52.6669 136.597 52.6669C139.19 52.6669 140.89 54.6219 140.89 57.2994C140.89 59.9769 139.19 61.9319 136.597 61.9319ZM151.685 46.1644C153.342 46.1644 154.702 44.8469 154.702 43.1894C154.702 41.5319 153.342 40.2144 151.685 40.2144C150.07 40.2144 148.71 41.5319 148.71 43.1894C148.752 44.8044 150.07 46.1219 151.685 46.1644ZM149.39 65.7994H154.065V48.9269H149.39V65.7994ZM158.187 65.7994H162.862V57.4694C162.862 54.1969 164.477 52.6244 166.645 52.6244C168.6 52.6244 169.662 54.1119 169.662 56.5769V65.7994H174.337V55.8119C174.337 51.3919 171.872 48.3744 167.75 48.3744C165.54 48.3744 163.797 49.3094 162.862 50.7119V48.7569H158.187V65.7994ZM186.237 61.2519C183.9 61.2519 181.902 59.4669 181.902 56.8744C181.902 54.2394 183.857 52.4969 186.237 52.4969C188.575 52.4969 190.572 54.2394 190.572 56.8744C190.572 59.5094 188.617 61.2519 186.237 61.2519ZM185.685 73.1944C190.912 73.1944 194.865 70.5169 194.865 64.3969V48.6719H190.19V50.5844C189.255 49.2669 187.427 48.2894 185.26 48.2894C180.797 48.2894 177.227 52.1144 177.227 56.9169C177.227 61.6769 180.797 65.5019 185.26 65.5019C187.427 65.5019 189.297 64.5244 190.19 63.2494V64.3969C190.19 67.1169 188.362 69.0719 185.6 69.0719C183.687 69.0719 181.775 68.4344 180.287 66.9469L177.737 70.4319C179.692 72.3444 182.71 73.1944 185.685 73.1944ZM204.767 65.7994H209.187L219.217 41.5744H213.777L207.02 58.4044L200.177 41.5744H194.822L204.767 65.7994ZM223.467 45.9519C225.125 45.9519 226.442 44.6344 226.485 42.9769C226.485 41.3194 225.125 40.0019 223.467 40.0019C221.852 40.0019 220.492 41.3194 220.492 42.9769C220.492 44.6344 221.895 45.9519 223.467 45.9519ZM221.172 65.7994H225.847V48.7144H221.172V65.7994ZM237.917 66.1819C241.487 66.1819 244.207 64.6944 245.822 62.3569L242.337 59.7644C241.572 60.9544 240.085 61.9319 237.917 61.9319C235.665 61.9319 233.667 60.6569 233.37 58.3619H246.12C246.205 57.6394 246.205 57.1719 246.205 56.7469C246.205 51.1794 242.295 48.3744 237.79 48.3744C232.605 48.3744 228.822 52.2419 228.822 57.2569C228.907 62.6544 232.86 66.1819 237.917 66.1819ZM233.582 55.2169C234.05 53.1344 235.962 52.2419 237.705 52.2419C239.447 52.2419 241.147 53.1769 241.572 55.2169H233.582ZM263.757 65.7994H268.39L274 48.7144H268.985L265.797 59.6369L262.312 48.7144H258.742L255.3 59.6369L252.07 48.7144H247.097L252.75 65.7994H257.382L260.57 56.1094L263.757 65.7994Z" fill="black"/>
<path d="M37.87 65.7992H28.435V51.0092H19V41.5742H37.8275V65.7992H37.87ZM56.74 65.7992H45.9875L56.1025 41.5742H66.855L56.74 65.7992ZM45.945 41.5742C48.92 41.5742 51.3425 43.9967 51.3425 46.9717C51.3425 49.9467 48.92 52.3692 45.945 52.3692C42.97 52.3692 40.5475 49.9467 40.5475 46.9717C40.59 43.9967 42.97 41.5742 45.945 41.5742Z" fill="black"/>
</svg>
