<svg width="294" height="113" viewBox="0 0 294 113" fill="none" xmlns="http://www.w3.org/2000/svg">
<rect width="294" height="113" rx="15" fill="#F5F5F5"/>
<g clip-path="url(#clip0_364_23728)">
<path d="M87.9362 36H71.0599V58.7739H93.8339V41.8977C93.8339 38.63 91.2039 36 87.9362 36ZM65.8 36H62.8977C59.63 36 57 38.63 57 41.8977V44.8H65.8V36ZM57 50.0599H65.8V58.8599H57V50.0599ZM85.127 72.8339H88.0293C91.2971 72.8339 93.927 70.2039 93.927 66.9362V64.127H85.127V72.8339ZM71.0599 64.127H79.8599V72.927H71.0599V64.127ZM57 64.127V67.0293C57 70.2971 59.63 72.927 62.8977 72.927H65.8V64.127H57ZM116.336 38.3577H112.889V70.5622H131.126V67.4808H116.336V38.3577ZM142.191 46.8853C135.476 46.8853 130.761 51.873 130.761 59.0391V59.8632C130.854 62.9446 132.216 65.8541 134.48 68.0254C136.659 70.0248 139.468 71.2 142.463 71.2H142.915C146.089 71.2 149.085 70.0176 151.442 68.0254L151.536 67.9322L149.995 65.3954L149.816 65.4886C147.909 67.2156 145.552 68.2117 143.015 68.2117C138.844 68.2117 134.58 65.4886 134.308 59.4117H151.729V59.2326C151.729 59.2326 151.822 58.1433 151.822 57.5987C151.801 51.0632 147.995 46.8853 142.191 46.8853ZM134.387 56.5023C135.111 52.4176 138.106 49.7876 142.005 49.7876C144.907 49.7876 148.081 51.5147 148.354 56.5023H134.387ZM171.765 49.6085V50.7909C170.311 48.3401 167.595 46.7993 164.779 46.7993H164.506C158.336 46.7993 154.072 51.701 154.072 58.8671C154.072 66.1264 158.157 71.0209 164.234 71.0209C169.042 71.0209 171.221 68.1186 171.945 66.8502V70.3902H175.212V38.3577H171.859V49.6085H171.765ZM164.685 68.0254C160.422 68.0254 157.612 64.3993 157.612 58.9531C157.612 53.6932 160.608 49.9739 164.779 49.9739C168.319 49.9739 171.851 52.7831 171.851 58.9531C171.851 65.6678 168.132 68.0254 164.685 68.0254ZM195.077 50.0599V50.2391C194.439 49.1498 192.447 46.7922 187.638 46.7922C181.562 46.7922 177.57 51.4215 177.57 58.4945C177.57 65.5674 181.741 70.3759 187.911 70.3759C191.265 70.3759 193.536 69.1935 195.077 66.7498V69.9244C195.077 74.3674 192.268 76.9114 187.273 76.9114C185.188 76.9114 183.009 76.3668 181.103 75.3707L180.924 75.2775L179.655 78.0866L179.835 78.1798C182.192 79.3622 184.822 79.9928 187.366 79.9928C192.719 79.9928 198.431 77.2697 198.431 69.7381V47.43H195.077V50.0599ZM188.362 67.3876C183.919 67.3876 181.017 63.9407 181.017 58.5876C181.017 53.1414 183.554 50.0599 187.911 50.0599C192.719 50.0599 194.984 52.8691 194.984 58.5876C195.077 64.213 192.719 67.3876 188.362 67.3876ZM212.132 46.8853C205.418 46.8853 200.795 51.873 200.795 58.9531V59.77C200.889 62.8515 202.25 65.7609 204.515 67.9322C206.693 69.9316 209.502 71.1068 212.498 71.1068H212.949C216.124 71.1068 219.119 69.9244 221.477 67.9322L221.57 67.8391L219.936 65.3023L219.757 65.3954C217.851 67.1225 215.493 68.1186 212.956 68.1186C208.786 68.1186 204.522 65.3954 204.25 59.3186H221.749V59.1394C221.749 59.1394 221.842 58.0502 221.842 57.5055C221.842 51.0632 218.03 46.8853 212.132 46.8853ZM204.422 56.5023C205.145 52.4176 208.141 49.7876 212.039 49.7876C214.941 49.7876 218.116 51.5147 218.388 56.5023H204.422ZM235.995 47.3368C235.544 47.2436 235.179 47.2436 234.727 47.1577C231.552 47.1577 228.922 49.157 227.561 52.5107V47.3368H224.207L224.3 70.2899V70.4691H227.747V60.7661C227.747 59.3114 227.926 57.7707 228.385 56.4091C229.474 52.8691 231.925 50.6046 234.827 50.6046C235.193 50.6046 235.551 50.6046 235.917 50.6977H236.096V47.344L235.995 47.3368Z" fill="#1D2028"/>
</g>
<defs>
<clipPath id="clip0_364_23728">
<rect width="179.081" height="44" fill="white" transform="translate(57 36)"/>
</clipPath>
</defs>
</svg>
