<svg width="294" height="113" viewBox="0 0 294 113" fill="none" xmlns="http://www.w3.org/2000/svg">
<rect width="294" height="113" rx="15" fill="#F5F5F5"/>
<g clip-path="url(#clip0_364_23687)">
<path d="M93.6215 65.1226C89.1302 65.1226 86.347 61.2773 86.347 55.957C86.347 50.6895 88.6893 46.7651 93.5938 46.7651C96.8175 46.7651 98.9393 48.7404 99.3255 51.3479H106.82C106.434 48.1083 104.919 45.2638 102.274 43.3675C100.124 41.7872 97.1484 40.8127 93.6215 40.8127C84.5835 40.8127 78.7144 47.3445 78.7144 55.957C78.7144 64.6222 84.7764 70.9696 93.6768 70.9696C97.9473 70.9696 101.061 69.8371 103.376 67.6774C105.442 65.7811 106.82 63.1473 107.013 60.2765H99.518C99.1877 63.0946 96.983 65.1226 93.6215 65.1226Z" fill="#262626"/>
<path d="M120.846 49.0565C113.902 49.0565 109.245 53.7973 109.245 60.0394C109.245 66.2815 113.902 71.0223 120.846 71.0223C127.844 71.0223 132.419 66.2815 132.419 60.0394C132.419 53.7973 127.844 49.0565 120.846 49.0565ZM120.818 66.3078C117.815 66.3078 116.244 63.8057 116.244 60.0394C116.244 56.273 117.815 53.7183 120.818 53.7183C123.822 53.7183 125.447 56.273 125.447 60.0394C125.42 63.8057 123.822 66.3078 120.818 66.3078Z" fill="#262626"/>
<path d="M142.223 46.8521C143.697 45.443 143.697 43.1584 142.223 41.7493C140.748 40.3402 138.358 40.3402 136.884 41.7493C135.41 43.1584 135.41 45.443 136.884 46.8521C138.358 48.2612 140.748 48.2612 142.223 46.8521Z" fill="#262626"/>
<path d="M133.548 54.2714H136.441V70.3639H143.33V49.6096H133.548V54.2714Z" fill="#262626"/>
<path d="M160.276 49.0038C157.273 49.0038 155.179 50.2153 153.581 52.454H153.443V49.6096H146.802V70.3375H153.719V58.8805C153.719 56.3257 155.234 54.5084 157.521 54.5084C159.781 54.5084 160.91 56.0096 160.91 58.1957V70.3375H167.826V56.8525C167.826 52.2434 165.016 49.0038 160.276 49.0038Z" fill="#262626"/>
<path d="M184.028 41.3921H171.105V70.3375H183.56C187.363 70.3375 190.421 69.4157 192.791 67.7037C196.18 65.2279 198.054 61.1456 198.054 56.036C198.054 47.1864 192.405 41.3921 184.028 41.3921ZM183.009 64.3325H178.6V47.3972H183.092C187.804 47.3972 190.476 50.7947 190.476 56.0623C190.449 61.3562 187.914 64.3325 183.009 64.3325Z" fill="#262626"/>
<path d="M218.527 51.7428C216.653 50.1363 214.201 49.1617 211.115 49.1617C204.501 49.1617 199.982 53.9025 199.982 60.092C199.982 66.3604 204.391 71.1013 211.556 71.1013C214.311 71.1013 216.515 70.4164 218.334 69.2049C220.235 67.9407 221.503 66.176 221.971 64.3061H215.248C214.642 65.5966 213.457 66.3604 211.638 66.3604C208.8 66.3604 207.202 64.6221 206.761 61.8303H222.357C222.385 57.5899 221.117 54.0079 218.527 51.7428ZM206.788 57.8796C207.257 55.4038 208.607 53.8236 211.225 53.8236C213.457 53.8236 215.083 55.4038 215.331 57.8796H206.788Z" fill="#262626"/>
<path d="M235.969 57.3793C233.213 56.9052 230.761 56.6945 230.761 55.2459C230.761 53.9553 232.083 53.3495 233.764 53.3495C235.666 53.3495 236.988 53.929 237.236 55.7726H243.601C243.271 51.6903 239.964 49.1355 233.819 49.1355C228.694 49.1355 224.451 51.4006 224.451 55.7726C224.451 60.6451 228.474 61.5933 232.249 62.1991C235.142 62.6732 237.76 62.8839 237.76 64.7539C237.76 66.0971 236.437 66.8082 234.37 66.8082C232.083 66.8082 230.65 65.8074 230.375 63.7267H223.845C224.065 68.3095 228.033 71.1013 234.398 71.1013C240.074 71.1013 244.263 68.7573 244.263 64.2271C244.29 58.9332 239.799 57.985 235.969 57.3793Z" fill="#262626"/>
<path d="M260.52 57.4056L268.153 49.6095H260.19L253.742 56.6154V41.3921H246.936V70.3638H253.742V63.99L255.836 61.883L261.044 70.3638H269.035L260.52 57.4056Z" fill="#262626"/>
<path d="M48.3493 57.8798C49.5059 57.8798 50.4434 56.9836 50.4434 55.8781C50.4434 54.7726 49.5059 53.8765 48.3493 53.8765C47.1927 53.8765 46.2551 54.7726 46.2551 55.8781C46.2551 56.9836 47.1927 57.8798 48.3493 57.8798Z" fill="#F8BF1E"/>
<path d="M65.0478 57.8798C66.2043 57.8798 67.1419 56.9836 67.1419 55.8781C67.1419 54.7726 66.2043 53.8765 65.0478 53.8765C63.8912 53.8765 62.9536 54.7726 62.9536 55.8781C62.9536 56.9836 63.8912 57.8798 65.0478 57.8798Z" fill="#F8BF1E"/>
<path d="M65.0478 73.8668C66.2043 73.8668 67.1419 72.9706 67.1419 71.8651C67.1419 70.7597 66.2043 69.8635 65.0478 69.8635C63.8912 69.8635 62.9536 70.7597 62.9536 71.8651C62.9536 72.9706 63.8912 73.8668 65.0478 73.8668Z" fill="#F8BF1E"/>
<path d="M71.1922 39.5222C70.9717 36.5987 68.5194 34.2283 65.4608 34.0176C63.5044 33.8859 61.7409 34.597 60.5009 35.8085C59.5641 36.7304 58.2966 37.2835 56.9464 37.2835H56.4504C55.0727 37.2835 53.7776 36.7304 52.8132 35.7822C51.6834 34.676 50.1128 34.0176 48.3769 34.0176C46.6409 34.0176 45.0703 34.7023 43.9406 35.7822C42.9761 36.7304 41.6811 37.2835 40.3034 37.2835H39.8349C38.4848 37.2835 37.1897 36.783 36.2528 35.8612C36.0599 35.6768 35.867 35.4925 35.6742 35.3344C33.332 33.5171 29.8877 33.5698 27.6282 35.4925C24.9003 37.7839 24.7901 41.7873 27.3251 44.2103C27.3527 44.2366 27.3802 44.263 27.4078 44.2893C28.3997 45.1848 28.9233 46.4491 28.9233 47.7396V48.1874C28.9233 49.5043 28.3446 50.7421 27.3526 51.664C26.1954 52.7438 25.5065 54.2451 25.5065 55.9044C25.5065 57.5637 26.2229 59.0649 27.3526 60.1448C28.3446 61.0666 28.9233 62.3045 28.9233 63.6214V64.2272C28.9233 65.5177 28.3446 66.7293 27.3802 67.6248C26.1678 68.7573 25.4238 70.3639 25.5065 72.1285C25.6443 75.2364 28.2895 77.7385 31.5134 77.8439C33.3871 77.8966 35.068 77.1854 36.2528 76.0002C37.1897 75.0784 38.4572 74.499 39.8074 74.499H40.3309C41.6811 74.499 42.9486 75.0521 43.8855 76.0002C45.1254 77.2381 46.9165 77.9492 48.8729 77.8176C51.9314 77.6068 54.4113 75.2364 54.6318 72.2866C54.8798 68.7837 52.0141 65.8865 48.4045 65.8865C46.696 65.8865 45.1254 66.5449 43.9957 67.6248C43.0313 68.5466 41.7362 69.0997 40.386 69.0997H39.8074C38.4572 69.0997 37.1346 68.5993 36.1701 67.6511C36.1426 67.6248 36.1426 67.6248 36.115 67.5984C35.1231 66.6766 34.5444 65.4387 34.5444 64.1218V63.5951C34.5444 62.2782 35.1231 61.0403 36.115 60.1185C37.2723 59.0386 37.9612 57.5373 37.9612 55.878C37.9612 54.2188 37.2448 52.7175 36.115 51.6376C35.1231 50.7158 34.5444 49.4779 34.5444 48.161V47.687C34.5444 46.3701 35.1231 45.1321 36.0875 44.2103C36.115 44.184 36.115 44.184 36.1426 44.1577C36.1701 44.1313 36.1701 44.1313 36.1977 44.105C37.1621 43.1832 38.4572 42.6301 39.8349 42.6301H40.3309C41.7087 42.6301 43.0037 43.1832 43.9681 44.1313C45.0979 45.2375 46.6685 45.896 48.4045 45.896C50.1404 45.896 51.711 45.2112 52.8407 44.1313C53.8051 43.1832 55.1003 42.6301 56.4779 42.6301H56.9188C58.2966 42.6301 59.5916 43.1832 60.556 44.1313C61.6858 45.2375 63.2564 45.896 64.9924 45.896C68.5745 45.9223 71.4401 43.0251 71.1922 39.5222Z" fill="#F8BF1E"/>
</g>
<defs>
<clipPath id="clip0_364_23687">
<rect width="243.535" height="44" fill="white" transform="translate(25.5 34.002)"/>
</clipPath>
</defs>
</svg>
