<svg width="135" height="94" viewBox="0 0 135 94" fill="none" xmlns="http://www.w3.org/2000/svg">
<rect width="135" height="94" rx="20" fill="white"/>
<path fill-rule="evenodd" clip-rule="evenodd" d="M115.612 14.1194L89.8845 14.1128C89.8814 14.1128 89.8778 14.1128 89.8778 14.1128C89.858 14.1128 89.8385 14.1163 89.8191 14.1163C86.2847 14.2243 81.8828 17.0517 81.0811 20.538L68.9144 74.233C68.1127 77.752 70.2938 80.6153 73.8025 80.668H100.83C104.285 80.4976 107.643 77.7027 108.431 74.256L120.598 20.5605C121.413 17.0058 119.179 14.1194 115.612 14.1194Z" fill="#01798A"/>
<path fill-rule="evenodd" clip-rule="evenodd" d="M68.9149 74.233L81.0816 20.538C81.8833 17.0517 86.2852 14.2243 89.8196 14.1163L79.5904 14.1097L61.1607 14.1062C57.6165 14.1785 53.1573 17.0257 52.3559 20.538L40.1856 74.233C39.3809 77.752 41.5652 80.6153 45.0717 80.668H73.803C70.2943 80.6153 68.1132 77.752 68.9149 74.233" fill="#024381"/>
<path fill-rule="evenodd" clip-rule="evenodd" d="M40.1856 74.233L52.3558 20.538C53.1573 17.0257 57.6165 14.1785 61.1607 14.1062L37.5511 14.1C33.9871 14.1 29.4176 16.9798 28.6032 20.538L16.4329 74.233C16.3588 74.5607 16.3177 74.8819 16.2932 75.1961V76.1923C16.5315 78.7574 18.4956 80.6253 21.3189 80.668H45.0717C41.5652 80.6153 39.3809 77.752 40.1856 74.233Z" fill="#DD0228"/>
<path fill-rule="evenodd" clip-rule="evenodd" d="M61.6584 53.2319H62.1053C62.5158 53.2319 62.7921 53.0945 62.9216 52.8224L64.0826 51.0893H67.1918L66.5434 52.2292H70.2713L69.7984 53.9757H65.3625C64.8516 54.7423 64.2227 55.1028 63.4665 55.06H61.1559L61.6584 53.2319H61.6584ZM61.1482 55.735H69.3156L68.795 57.6323H65.5103L65.0092 59.4635H68.2054L67.6848 61.3605H64.4885L63.746 64.0666C63.5622 64.5189 63.8039 64.7223 64.4673 64.6761H67.0722L66.5896 66.439H61.5884C60.6404 66.439 60.3152 65.8981 60.6126 64.8139L61.5619 61.3605H59.5188L60.0378 59.4635H62.0812L62.5819 57.6323H60.6289L61.1482 55.735H61.1482ZM74.1839 51.0764L74.0553 52.187C74.0553 52.187 75.596 51.0333 76.9952 51.0333H82.1657L80.1884 58.1724C80.0244 58.9886 79.3212 59.3944 78.0793 59.3944H72.219L70.8462 64.4075C70.7671 64.6761 70.8789 64.8138 71.1746 64.8138H72.3277L71.9038 66.3699H68.9723C67.8471 66.3699 67.3791 66.0324 67.5647 65.3545L71.4438 51.0764H74.1839H74.1839ZM78.5627 53.0945H73.9478L73.3957 55.0208C73.3957 55.0208 74.1643 54.4674 75.4486 54.4476C76.7294 54.4276 78.1914 54.4476 78.1914 54.4476L78.5627 53.0945ZM76.8907 57.5632C77.2319 57.6093 77.4228 57.4747 77.4458 57.1568L77.7282 56.1414H73.1062L72.7186 57.5632H76.8907ZM73.7729 59.8697H76.4371L76.3876 61.0196H77.0969C77.4553 61.0196 77.633 60.9051 77.633 60.6792L77.8429 59.9353H80.0571L79.7615 61.0196C79.5113 61.9239 78.8484 62.3957 77.7709 62.4419H76.3518L76.3451 64.4075C76.3191 64.7222 76.6046 64.8827 77.1924 64.8827H78.5262L78.0957 66.439H74.8964C73.9997 66.4815 73.5599 66.0553 73.5692 65.1513L73.7729 59.8697Z" fill="white"/>
<path fill-rule="evenodd" clip-rule="evenodd" d="M41.4899 41.565C41.1286 43.331 40.2909 44.6874 38.9916 45.6506C37.7041 46.5975 36.0434 47.0724 34.0103 47.0724C32.0969 47.0724 30.6942 46.5875 29.799 45.6145C29.1782 44.9231 28.8694 44.0451 28.8694 42.9835C28.8694 42.5446 28.9221 42.0728 29.0272 41.565L31.1935 31.1466H34.4652L32.3284 41.4471C32.2627 41.7322 32.2364 41.9976 32.2399 42.2368C32.2364 42.7644 32.3678 43.1967 32.6338 43.534C33.0214 44.0354 33.6505 44.2843 34.5259 44.2843C35.5326 44.2843 36.3621 44.0387 37.0059 43.5438C37.6499 43.0524 38.0703 42.3547 38.2591 41.4471L40.4026 31.1466H43.6578L41.4899 41.565Z" fill="white"/>
<path fill-rule="evenodd" clip-rule="evenodd" d="M55.2299 37.4664H57.7922L55.7851 46.7645H53.2278L55.2299 37.4664ZM56.0362 34.0789H58.6214L58.1385 36.3358H55.5535L56.0362 34.0789Z" fill="white"/>
<path fill-rule="evenodd" clip-rule="evenodd" d="M60.0604 46.0568C59.3902 45.418 59.0519 44.5564 59.0486 43.4621C59.0486 43.2752 59.06 43.0624 59.0848 42.8296C59.1095 42.5937 59.1408 42.3643 59.185 42.1515C59.4888 40.6412 60.136 39.4421 61.1329 38.5574C62.1282 37.6695 63.329 37.2239 64.7348 37.2239C65.8861 37.2239 66.7992 37.545 67.4679 38.1872C68.1361 38.8327 68.4712 39.704 68.4712 40.8117C68.4712 41.0014 68.4566 41.221 68.4318 41.4569C68.4022 41.6961 68.3664 41.9254 68.3249 42.1515C68.0279 43.6389 67.3826 44.825 66.3855 45.6933C65.3885 46.5681 64.1912 47.0035 62.7951 47.0035C61.6389 47.0035 60.7289 46.6891 60.0604 46.0568ZM64.9436 44.2156C65.3952 43.7274 65.7188 42.9868 65.9159 42.0008C65.9455 41.8469 65.9716 41.6863 65.9879 41.5258C66.0043 41.3684 66.0109 41.221 66.0109 41.0867C66.0109 40.5133 65.8646 40.0678 65.5707 39.7532C65.2786 39.4354 64.8631 39.2783 64.3261 39.2783C63.6164 39.2783 63.0383 39.527 62.5853 40.0251C62.1283 40.5233 61.8048 41.2768 61.601 42.2793C61.5732 42.4332 61.5502 42.5873 61.529 42.738C61.5126 42.8919 61.5078 43.0361 61.5109 43.1671C61.5109 43.7372 61.6572 44.1763 61.9511 44.4875C62.2432 44.7988 62.6569 44.9527 63.2009 44.9527C63.9138 44.9527 64.4919 44.707 64.9436 44.2156" fill="white"/>
<path fill-rule="evenodd" clip-rule="evenodd" d="M85.0959 53.3106L85.7138 51.1418H88.8376L88.7028 51.9377C88.7028 51.9377 90.2991 51.1418 91.4486 51.1418C92.5986 51.1418 95.3114 51.1418 95.3114 51.1418L94.6975 53.3106H94.0898L91.176 63.5393H91.7836L91.2056 65.5706H90.5979L90.3451 66.4519H87.3199L87.5722 65.5706H81.604L82.1856 63.5393H82.7836L85.7001 53.3106H85.0959H85.0959ZM88.4661 53.3106L87.6711 56.0788C87.6711 56.0788 89.0314 55.5582 90.2039 55.4108C90.4629 54.4441 90.8015 53.3106 90.8015 53.3106H88.4661L88.4661 53.3106ZM87.3029 57.3765L86.5051 60.276C86.5051 60.276 88.0126 59.5356 89.0473 59.4733C89.346 58.3526 89.6452 57.3765 89.6452 57.3765H87.3029V57.3765ZM87.8876 63.5393L88.4855 61.4359H86.1538L85.5527 63.5393H87.8876ZM95.4428 51.0075H98.3796L98.5043 52.0883C98.4848 52.3635 98.6488 52.4949 98.997 52.4949H99.5159L98.9908 54.3262H96.8323C96.0081 54.3687 95.5842 54.0544 95.5449 53.376L95.4428 51.0075ZM94.5825 54.9357H104.095L103.537 56.9016H100.508L99.989 58.7294H103.015L102.453 60.6921H99.083L98.3206 61.8423H99.97L100.351 64.1454C100.396 64.3747 100.6 64.4861 100.948 64.4861H101.461L100.922 66.3828H99.109C98.1694 66.429 97.6837 66.1144 97.6439 65.4363L97.2068 63.333L95.706 65.5706C95.3511 66.2029 94.8057 66.4979 94.0703 66.4519H91.3009L91.8397 64.5547H92.7037C93.0586 64.5547 93.3538 64.3974 93.6199 64.0797L95.9689 60.6921H92.9402L93.5015 58.7294H96.7865L97.3089 56.9016H94.0208L94.5825 54.9357Z" fill="white"/>
<path fill-rule="evenodd" clip-rule="evenodd" d="M44.5035 37.4631H46.8143L46.55 38.8063L46.8817 38.423C47.6308 37.6237 48.5406 37.2272 49.6148 37.2272C50.5871 37.2272 51.2883 37.5091 51.7286 38.0757C52.162 38.6426 52.2803 39.4257 52.0752 40.4315L50.8022 46.7678H48.4273L49.5769 41.0245C49.6954 40.4315 49.6626 39.9892 49.4799 39.704C49.2995 39.419 48.9544 39.2783 48.4568 39.2783C47.8459 39.2783 47.3317 39.4681 46.9129 39.845C46.4924 40.225 46.2149 40.7526 46.0786 41.4242L45.0192 46.7678H42.6394L44.5035 37.4631Z" fill="white"/>
<path fill-rule="evenodd" clip-rule="evenodd" d="M71.0031 37.4631H73.3159L73.0534 38.8063L73.3813 38.423C74.1309 37.6237 75.044 37.2272 76.1148 37.2272C77.0872 37.2272 77.7899 37.5091 78.2265 38.0757C78.6574 38.6426 78.7821 39.4257 78.5717 40.4315L77.3037 46.7678H74.9255L76.0755 41.0245C76.1935 40.4315 76.1608 39.9892 75.98 39.704C75.7927 39.419 75.4541 39.2783 74.9587 39.2783C74.3475 39.2783 73.8352 39.4681 73.4114 39.845C72.9906 40.225 72.7118 40.7526 72.5805 41.4242L71.5163 46.7678H69.1394L71.0031 37.4631" fill="white"/>
<path fill-rule="evenodd" clip-rule="evenodd" d="M82.435 31.6967H89.1492C90.4402 31.6967 91.4385 31.9885 92.1249 32.5616C92.8082 33.1417 93.1503 33.9739 93.1503 35.0583V35.091C93.1503 35.2973 93.1366 35.53 93.1171 35.7822C93.084 36.0312 93.0411 36.2833 92.9858 36.5456C92.6902 37.9807 92.0034 39.134 90.9427 40.0088C89.878 40.8802 88.6171 41.3193 87.1653 41.3193H83.5646L82.4513 46.7678H79.3337L82.435 31.6967M84.1133 38.6984H87.0997C87.878 38.6984 88.4954 38.5179 88.9457 38.161C89.3926 37.8006 89.6882 37.2503 89.8522 36.5033C89.8783 36.3653 89.8946 36.241 89.9145 36.1264C89.9247 36.0184 89.9375 35.91 89.9375 35.8055C89.9375 35.2712 89.7474 34.8847 89.366 34.6422C88.9851 34.3962 88.3875 34.2785 87.5593 34.2785H85.0233L84.1133 38.6984" fill="white"/>
<path fill-rule="evenodd" clip-rule="evenodd" d="M107.104 48.5667C106.119 50.6568 105.179 51.8753 104.628 52.4422C104.075 53.0027 102.982 54.3067 100.347 54.2082L100.574 52.6128C102.791 51.9313 103.99 48.8611 104.673 47.5017L103.859 37.4893L105.574 37.4663H107.012L107.167 43.747L109.863 37.4663H112.593L107.104 48.5667" fill="white"/>
<path fill-rule="evenodd" clip-rule="evenodd" d="M99.4703 38.2231L98.3857 38.967C97.2525 38.0825 96.2179 37.5352 94.2211 38.459C91.5009 39.7171 89.2279 49.366 96.7173 46.1879L97.1443 46.6924L100.091 46.7678L102.026 38.0003L99.4703 38.2231M97.7951 43.0164C97.3218 44.4089 96.2646 45.3295 95.4368 45.0674C94.609 44.8119 94.3133 43.4684 94.7929 42.0728C95.2658 40.677 96.33 39.7598 97.1512 40.0219C97.9789 40.2774 98.2777 41.6206 97.7951 43.0164Z" fill="white"/>
<path fill-rule="evenodd" clip-rule="evenodd" d="M89.8783 14.1303L79.5903 14.1097L89.8195 14.1537C89.8389 14.1537 89.8584 14.1303 89.8783 14.1303" fill="#E02F41"/>
<path fill-rule="evenodd" clip-rule="evenodd" d="M79.5903 14.1646L61.3021 14.1C61.2561 14.1 61.2084 14.1206 61.1606 14.1411L79.5903 14.1646" fill="#2E4F7D"/>
</svg>
