<svg width="135" height="94" viewBox="0 0 135 94" fill="none" xmlns="http://www.w3.org/2000/svg">
<rect width="135" height="94" rx="20" fill="white"/>
<path d="M59.9396 64.4681H50.9517L56.5734 31.5664H65.5608L59.9396 64.4681Z" fill="#15195A"/>
<path d="M92.5209 32.3708C90.7481 31.7051 87.9363 30.9701 84.4595 30.9701C75.5836 30.9701 69.3333 35.4501 69.2949 41.8551C69.2212 46.5808 73.77 49.2055 77.1721 50.7812C80.6494 52.3913 81.8314 53.4422 81.8314 54.8773C81.7961 57.0815 79.0216 58.0975 76.4339 58.0975C72.8455 58.0975 70.9227 57.5737 68.0008 56.3474L66.8173 55.8217L65.5596 63.2074C67.6676 64.1165 71.5514 64.9231 75.5836 64.9585C85.0144 64.9585 91.1541 60.5478 91.2268 53.7222C91.2627 49.9768 88.8608 47.1069 83.6824 44.7618C80.5388 43.2563 78.6136 42.2413 78.6136 40.7009C78.6505 39.3006 80.242 37.8664 83.7905 37.8664C86.7125 37.7962 88.8593 38.4609 90.4857 39.1262L91.2986 39.4756L92.5209 32.3708Z" fill="#15195A"/>
<path fill-rule="evenodd" clip-rule="evenodd" d="M108.61 31.5664H115.562L122.813 64.4676H114.491C114.491 64.4676 113.676 60.6873 113.418 59.5322H101.879C101.545 60.4068 99.9923 64.4676 99.9923 64.4676H90.5615L103.912 34.2963C104.837 32.1609 106.466 31.5664 108.61 31.5664ZM108.056 43.6066C108.056 43.6066 105.208 50.922 104.468 52.8122H111.938C111.569 51.1672 109.867 43.2916 109.867 43.2916L109.238 40.4566C108.974 41.1866 108.591 42.1903 108.333 42.8673C108.159 43.3262 108.041 43.6349 108.056 43.6066Z" fill="#15195A"/>
<path fill-rule="evenodd" clip-rule="evenodd" d="M12.008 31.5664H26.4688C28.4288 31.6357 30.0193 32.2307 30.5369 34.3321L33.6792 49.4475C33.6797 49.449 33.6802 49.4505 33.6806 49.452L34.6425 54.0022L43.4446 31.5664H52.9486L38.8211 64.4332H29.3166L21.3057 35.8446C18.5417 34.3151 15.3871 33.0849 11.8601 32.2312L12.008 31.5664Z" fill="#15195A"/>
</svg>
