<svg width="135" height="94" viewBox="0 0 135 94" fill="none" xmlns="http://www.w3.org/2000/svg">
<rect width="135" height="94" rx="20" fill="white"/>
<path d="M79.8599 68.0948H55.7668V24.7037H79.8599V68.0948Z" fill="#FF5F00"/>
<path d="M57.3104 46.3957C57.3104 37.5937 61.423 29.753 67.8272 24.7002C63.1439 21.0053 57.2334 18.8 50.8099 18.8C35.6029 18.8 23.2759 31.1548 23.2759 46.3957C23.2759 61.6366 35.6029 73.9915 50.8099 73.9915C57.2334 73.9915 63.1439 71.7861 67.8272 68.0913C61.423 63.0385 57.3104 55.1978 57.3104 46.3957Z" fill="#EB001B"/>
<path d="M112.354 46.3957C112.354 61.6366 100.027 73.9915 84.8201 73.9915C78.3966 73.9915 72.486 71.7861 67.801 68.0913C74.207 63.0385 78.3195 55.1978 78.3195 46.3957C78.3195 37.5937 74.207 29.753 67.801 24.7002C72.486 21.0053 78.3966 18.8 84.8201 18.8C100.027 18.8 112.354 31.1548 112.354 46.3957Z" fill="#F79E1B"/>
</svg>
