<svg width="135" height="94" viewBox="0 0 135 94" fill="none" xmlns="http://www.w3.org/2000/svg">
<rect width="135" height="94" rx="20" fill="white"/>
<path fill-rule="evenodd" clip-rule="evenodd" d="M61.5383 47.602L62.126 43.8221L60.8168 43.7912H54.5649L58.9097 15.8978C58.9233 15.8133 58.967 15.7349 59.0309 15.6792C59.0951 15.6234 59.177 15.5928 59.2626 15.5928H69.8041C73.304 15.5928 75.7191 16.33 76.9799 17.7853C77.5711 18.4681 77.9476 19.1817 78.1298 19.9668C78.3209 20.7907 78.3241 21.7749 78.1377 22.9756L78.1242 23.0629V23.8324L78.7153 24.1715C79.213 24.4389 79.6087 24.7449 79.9122 25.0952C80.4178 25.6791 80.7448 26.4211 80.883 27.3005C81.0259 28.2051 80.9787 29.2818 80.7448 30.5006C80.475 31.9024 80.0391 33.1235 79.4501 34.1224C78.9086 35.0429 78.2186 35.8066 77.3992 36.3981C76.6169 36.9604 75.6877 37.3872 74.6369 37.6603C73.6185 37.9287 72.4575 38.0642 71.1842 38.0642H70.3638C69.7774 38.0642 69.2076 38.278 68.7603 38.6615C68.3117 39.0529 68.0152 39.5877 67.9242 40.1726L67.8622 40.513L66.8237 47.1755L66.7768 47.42C66.7642 47.4974 66.7428 47.536 66.7113 47.5621C66.6833 47.586 66.643 47.602 66.6036 47.602H61.5383Z" fill="#104ADE"/>
<path fill-rule="evenodd" clip-rule="evenodd" d="M79.2753 23.1519C79.2442 23.3555 79.208 23.5637 79.1677 23.7775C77.7775 31.0045 73.0213 33.5012 66.947 33.5012H63.8542C63.1113 33.5012 62.4851 34.0471 62.3696 34.7892L60.3376 47.8397C60.2624 48.3271 60.6332 48.766 61.1186 48.766H66.6042C67.2536 48.766 67.8055 48.2882 67.9078 47.6396L67.9616 47.3575L68.9945 40.7211L69.0609 40.3571C69.1619 39.7063 69.715 39.2282 70.3644 39.2282H71.1848C76.4995 39.2282 80.6601 37.0436 81.8762 30.7212C82.3839 28.0801 82.1211 25.8748 80.7769 24.3238C80.3702 23.8563 79.8656 23.468 79.2753 23.1519Z" fill="#298FC2"/>
<path fill-rule="evenodd" clip-rule="evenodd" d="M77.8211 22.5648C77.6086 22.502 77.3895 22.4452 77.1647 22.3939C76.9387 22.3439 76.7073 22.2996 76.469 22.2607C75.6351 22.1243 74.7213 22.0596 73.7426 22.0596H65.4802C65.2765 22.0596 65.0832 22.1061 64.9104 22.1903C64.5292 22.3758 64.2462 22.741 64.1776 23.1882L62.4198 34.4606L62.3694 34.7892C62.4849 34.0472 63.111 33.5012 63.854 33.5012H66.9468C73.0211 33.5012 77.7773 31.0032 79.1674 23.7775C79.209 23.5637 79.2439 23.3555 79.2751 23.1519C78.9235 22.9629 78.5426 22.8013 78.1324 22.6636C78.031 22.6295 77.9265 22.5966 77.8211 22.5648Z" fill="#22284F"/>
<path fill-rule="evenodd" clip-rule="evenodd" d="M64.1776 22.7607C64.2463 22.3135 64.5293 21.9483 64.9105 21.764C65.0846 21.6796 65.2766 21.633 65.4803 21.633H73.7427C74.7214 21.633 75.6352 21.6981 76.4691 21.8345C76.7074 21.873 76.9388 21.9177 77.1648 21.9677C77.3896 22.0187 77.6087 22.0758 77.8212 22.1382C77.9266 22.1701 78.0311 22.2033 78.1334 22.2361C78.5436 22.3738 78.9248 22.5367 79.2764 22.7244C79.6901 20.0537 79.273 18.2353 77.847 16.5888C76.2746 14.7758 73.437 14 69.8059 14H59.264C58.5224 14 57.8896 14.546 57.775 15.2893L53.3843 43.4695C53.2977 44.027 53.7224 44.5299 54.2777 44.5299H60.7857L64.1776 22.7607Z" fill="#104ADE"/>
<path fill-rule="evenodd" clip-rule="evenodd" d="M30.4788 55.274H22.7927C22.2667 55.274 21.8194 55.6609 21.7372 56.1868L18.6286 76.1421C18.5669 76.5361 18.8682 76.8908 19.2626 76.8908H22.9319C23.4579 76.8908 23.9052 76.5042 23.9874 75.9773L24.8257 70.5949C24.9066 70.068 25.3549 69.6811 25.8799 69.6811H28.313C33.3758 69.6811 36.2977 67.2003 37.0611 62.2848C37.4049 60.134 37.0756 58.4444 36.0809 57.2609C34.9885 55.9615 33.051 55.274 30.4788 55.274ZM31.365 62.5624C30.9448 65.3549 28.8375 65.3549 26.8002 65.3549H25.6402L26.4539 60.1397C26.5024 59.8245 26.7719 59.5925 27.0867 59.5925H27.6183C29.0063 59.5925 30.3155 59.5925 30.992 60.3935C31.3956 60.8712 31.519 61.5814 31.365 62.5624Z" fill="#104ADE"/>
<path fill-rule="evenodd" clip-rule="evenodd" d="M53.6498 62.3217H49.9692C49.6557 62.3217 49.3846 62.5537 49.3365 62.869L49.1734 63.9112L48.9162 63.5335C48.1195 62.3625 46.3425 61.9711 44.5692 61.9711C40.5018 61.9711 37.028 65.0902 36.3515 69.4655C35.9999 71.6479 36.4998 73.7349 37.7228 75.1903C38.8444 76.5283 40.4492 77.0861 42.3584 77.0861C45.6357 77.0861 47.4527 74.9525 47.4527 74.9525L47.2887 75.9881C47.227 76.3839 47.5283 76.739 47.9205 76.739H51.2356C51.7629 76.739 52.208 76.3521 52.2911 75.8252L54.2803 63.0704C54.3433 62.6777 54.043 62.3217 53.6498 62.3217ZM48.5192 69.5748C48.1641 71.7036 46.4954 73.1328 44.3668 73.1328C43.298 73.1328 42.444 72.7857 41.8953 72.1282C41.3514 71.4751 41.1449 70.5454 41.3177 69.5098C41.6495 67.3991 43.3462 65.9231 45.4424 65.9231C46.4875 65.9231 47.3372 66.275 47.8969 66.9379C48.4575 67.6082 48.6801 68.5437 48.5192 69.5748Z" fill="#104ADE"/>
<path fill-rule="evenodd" clip-rule="evenodd" d="M72.9691 62.6408H69.2702C68.9173 62.6408 68.5859 62.8183 68.386 63.1154L63.2847 70.7233L61.1224 63.4121C60.9864 62.9548 60.5696 62.6408 60.0974 62.6408H56.4631C56.0212 62.6408 55.7145 63.0778 55.8549 63.4988L59.929 75.6037L56.0989 81.0783C55.7977 81.5095 56.1011 82.1024 56.6215 82.1024H60.3156C60.6663 82.1024 60.9943 81.9293 61.1932 81.6383L73.4948 63.6592C73.7894 63.2292 73.4869 62.6408 72.9691 62.6408Z" fill="#104ADE"/>
<path fill-rule="evenodd" clip-rule="evenodd" d="M85.299 55.274H77.612C77.0873 55.274 76.64 55.6609 76.5578 56.1868L73.4492 76.1421C73.3875 76.5361 73.6888 76.8908 74.081 76.8908H78.0257C78.3918 76.8908 78.7053 76.6202 78.7626 76.2514L79.645 70.5949C79.7259 70.068 80.1745 69.6811 80.6992 69.6811H83.1313C88.1951 69.6811 91.1161 67.2003 91.8804 62.2848C92.2254 60.134 91.894 58.4444 90.8992 57.2609C89.8078 55.9615 87.8715 55.274 85.299 55.274ZM86.1859 62.5624C85.7666 65.3549 83.6594 65.3549 81.6208 65.3549H80.4623L81.277 60.1397C81.3252 59.8245 81.5927 59.5925 81.9085 59.5925H82.4402C83.8268 59.5925 85.1373 59.5925 85.8138 60.3935C86.2174 60.8712 86.3398 61.5814 86.1859 62.5624Z" fill="#298FC2"/>
<path fill-rule="evenodd" clip-rule="evenodd" d="M108.465 62.3217H104.787C104.471 62.3217 104.203 62.5537 104.156 62.869L103.992 63.9112L103.734 63.5335C102.937 62.3625 101.162 61.9711 99.388 61.9711C95.3208 61.9711 91.8483 65.0902 91.1718 69.4655C90.8212 71.6479 91.3189 73.7349 92.5415 75.1903C93.6656 76.5283 95.2679 77.0861 97.1775 77.0861C100.455 77.0861 102.272 74.9525 102.272 74.9525L102.108 75.9881C102.046 76.3839 102.347 76.739 102.742 76.739H106.056C106.581 76.739 107.028 76.3521 107.11 75.8252L109.1 63.0704C109.161 62.6777 108.86 62.3217 108.465 62.3217ZM103.335 69.5748C102.982 71.7036 101.311 73.1328 99.1822 73.1328C98.1157 73.1328 97.2595 72.7857 96.7108 72.1282C96.1671 71.4751 95.9625 70.5454 96.1331 69.5098C96.4671 67.3991 98.1617 65.9231 100.258 65.9231C101.303 65.9231 102.153 66.275 102.712 66.9379C103.275 67.6082 103.498 68.5437 103.335 69.5748Z" fill="#298FC2"/>
<path fill-rule="evenodd" clip-rule="evenodd" d="M112.498 55.8225L109.343 76.1431C109.282 76.537 109.582 76.8918 109.975 76.8918H113.146C113.674 76.8918 114.121 76.5051 114.201 75.9783L117.312 56.0239C117.374 55.63 117.073 55.274 116.681 55.274H113.13C112.816 55.2749 112.546 55.5073 112.498 55.8225Z" fill="#298FC2"/>
</svg>
