<svg xmlns="http://www.w3.org/2000/svg" width="286" height="286" viewBox="0 0 286 286" fill="none">
  <path d="M151.987 279.911L155.306 285.545L151.746 285.614L149.256 281.005L147.738 281.034L147.828 285.689L144.508 285.754L144.418 281.099L142.956 281.127L140.606 285.829L137.064 285.897L140.147 280.139L136.627 273.922L140.529 273.847L142.945 278.388L144.365 278.36L144.277 273.775L147.597 273.71L147.685 278.296L149.108 278.269L151.361 273.638L155.28 273.562L151.987 279.911Z" fill="white" fill-opacity="0.8"/>
  <path fill-rule="evenodd" clip-rule="evenodd" d="M124.983 270.161L124.713 272.559L132.334 273.414L132.603 271.016L135.698 271.364L135.129 276.432L134.772 276.392L134.772 276.392C134.765 276.391 134.758 276.391 134.751 276.39L134.693 276.383C134.331 276.349 134.02 276.447 133.759 276.674C133.466 276.929 133.218 277.297 133.015 277.779C132.8 278.26 132.62 278.837 132.476 279.51C132.32 280.181 132.18 280.918 132.056 281.719L131.507 285.378L121.914 284.301L122.95 275.065L121.335 274.883L121.904 269.815L124.983 270.161ZM125.531 282.003L128.95 282.387L129.145 281.1C129.246 280.411 129.364 279.769 129.499 279.176C129.624 278.582 129.77 278.041 129.94 277.555C130.098 277.067 130.288 276.652 130.51 276.31C130.596 276.173 130.687 276.052 130.783 275.944L126.268 275.437L125.531 282.003Z" fill="white" fill-opacity="0.8"/>
  <path fill-rule="evenodd" clip-rule="evenodd" d="M163.056 272.003C164.003 271.859 164.901 271.879 165.748 272.063C166.595 272.246 167.36 272.569 168.041 273.031C168.713 273.507 169.269 274.092 169.709 274.787C170.149 275.482 170.436 276.275 170.571 277.167C170.706 278.058 170.666 278.901 170.451 279.695C170.237 280.489 169.878 281.207 169.376 281.848C168.863 282.503 168.229 283.043 167.474 283.469C166.719 283.895 165.868 284.18 164.92 284.323C163.961 284.468 163.064 284.448 162.228 284.263C161.381 284.08 160.621 283.75 159.949 283.275C159.279 282.811 158.724 282.231 158.284 281.536C157.833 280.843 157.54 280.05 157.405 279.159C157.27 278.268 157.314 277.418 157.539 276.611C157.753 275.817 158.112 275.099 158.615 274.458C159.118 273.816 159.747 273.282 160.502 272.857C161.245 272.432 162.097 272.148 163.056 272.003ZM164.781 274.823C164.362 274.725 163.927 274.71 163.476 274.778C163.024 274.846 162.619 274.989 162.259 275.205C161.888 275.422 161.584 275.699 161.346 276.035C161.099 276.384 160.928 276.779 160.833 277.221C160.727 277.664 160.713 278.139 160.79 278.647C160.868 279.166 161.023 279.616 161.253 279.996C161.474 280.39 161.754 280.711 162.092 280.96C162.42 281.222 162.793 281.402 163.212 281.5C163.619 281.6 164.049 281.616 164.5 281.547C164.951 281.479 165.363 281.336 165.734 281.118C166.093 280.903 166.397 280.62 166.644 280.271C166.881 279.935 167.054 279.545 167.16 279.102C167.256 278.672 167.265 278.198 167.187 277.679C167.11 277.171 166.961 276.72 166.74 276.327C166.507 275.935 166.227 275.608 165.898 275.346C165.561 275.097 165.188 274.923 164.781 274.823Z" fill="white" fill-opacity="0.8"/>
  <path d="M119.484 271.759L116.925 283.465L107.745 281.458L108.305 278.899L114.207 280.19L114.638 278.216L109.438 277.08L109.979 274.605L115.179 275.741L115.647 273.601L109.527 272.264L110.087 269.706L119.484 271.759Z" fill="white" fill-opacity="0.8"/>
  <path fill-rule="evenodd" clip-rule="evenodd" d="M183.762 279.942L178.46 281.314C177.399 281.589 176.443 281.653 175.593 281.508C174.731 281.366 174.006 281.023 173.417 280.48C172.832 279.948 172.425 279.24 172.196 278.357C171.97 277.484 171.984 276.672 172.238 275.923C172.492 275.174 172.96 274.522 173.642 273.969C174.315 273.429 175.182 273.022 176.243 272.748L178.264 272.224L177.479 269.192L180.76 268.343L183.762 279.942ZM177.111 275.281C176.426 275.458 175.956 275.739 175.702 276.123C175.437 276.51 175.373 276.968 175.51 277.499C175.65 278.04 175.93 278.415 176.349 278.625C176.758 278.838 177.305 278.855 177.99 278.678L179.812 278.206L178.933 274.809L177.111 275.281Z" fill="white" fill-opacity="0.8"/>
  <path d="M99.9406 266.559L98.4814 270.997L102.872 272.441L104.331 268.002L107.55 269.06L103.809 280.442L100.59 279.384L101.995 275.107L97.6047 273.664L96.1994 277.941L92.9799 276.883L96.7211 265.5L99.9406 266.559Z" fill="white" fill-opacity="0.8"/>
  <path d="M200.566 273.76L191.845 277.258L190.87 274.828L196.478 272.578L195.726 270.704L190.785 272.686L189.843 270.335L194.783 268.353L193.967 266.32L188.153 268.651L187.178 266.221L196.106 262.64L200.566 273.76Z" fill="white" fill-opacity="0.8"/>
  <path fill-rule="evenodd" clip-rule="evenodd" d="M81.7209 259.727C82.7181 259.523 83.9108 259.755 85.2988 260.423L90.8354 263.088L85.6396 273.884L80.396 271.36C79.1005 270.737 78.2165 270.008 77.7446 269.173C77.2575 268.343 77.2292 267.481 77.6597 266.586C78.0803 265.713 78.746 265.185 79.6568 265.002C79.8513 264.966 80.0508 264.946 80.2552 264.942C79.9611 264.658 79.7257 264.358 79.5503 264.039C79.0891 263.235 79.0813 262.37 79.5266 261.444C79.9819 260.499 80.7133 259.926 81.7209 259.727ZM82.767 267.183C82.3352 266.975 81.9694 266.907 81.6694 266.977C81.3645 267.059 81.1279 267.274 80.9596 267.624C80.7914 267.973 80.7732 268.287 80.905 268.566C81.0318 268.855 81.3111 269.103 81.7429 269.311L83.6861 270.246L84.7106 268.118L82.767 267.183ZM84.3682 262.673C83.9261 262.46 83.5524 262.394 83.2474 262.475C82.9271 262.562 82.6778 262.79 82.4996 263.16C82.3215 263.53 82.3037 263.858 82.4458 264.141C82.5726 264.43 82.8572 264.681 83.2992 264.894L85.7049 266.052L86.7738 263.831L84.3682 262.673Z" fill="white" fill-opacity="0.8"/>
  <path fill-rule="evenodd" clip-rule="evenodd" d="M211.681 257.696L211.289 257.902C210.973 258.078 210.771 258.333 210.684 258.667C210.585 259.042 210.587 259.486 210.69 259.999C210.784 260.518 210.96 261.096 211.219 261.733C211.467 262.376 211.766 263.063 212.114 263.796L213.718 267.13L205.181 271.635L200.842 263.415L199.404 264.175L197.024 259.664L199.764 258.218L200.89 260.352L207.672 256.773L206.545 254.639L209.3 253.185L211.681 257.696ZM203.794 261.858L206.878 267.701L209.921 266.095L209.359 264.921C209.054 264.295 208.791 263.698 208.569 263.131C208.337 262.57 208.155 262.04 208.021 261.543C207.878 261.051 207.802 260.601 207.793 260.193C207.787 260.032 207.794 259.88 207.813 259.737L203.794 261.858Z" fill="white" fill-opacity="0.8"/>
  <path fill-rule="evenodd" clip-rule="evenodd" d="M67.6443 251.168C68.6592 251.09 69.8136 251.469 71.1071 252.306L76.2671 255.642L69.761 265.703L64.8746 262.543C63.6673 261.763 62.8816 260.929 62.5179 260.041C62.1383 259.157 62.218 258.298 62.7571 257.465C63.2837 256.65 64.0102 256.209 64.9366 256.143C65.1342 256.13 65.3346 256.136 65.5378 256.157C65.2816 255.839 65.0859 255.512 64.9517 255.174C64.5947 254.318 64.6949 253.459 65.2525 252.596C65.8225 251.715 66.6199 251.239 67.6443 251.168ZM67.7496 258.696C67.3473 258.435 66.9929 258.322 66.6864 258.354C66.3736 258.397 66.1118 258.581 65.9011 258.907C65.6905 259.232 65.633 259.542 65.7289 259.835C65.8185 260.137 66.0648 260.419 66.4672 260.679L68.2782 261.85L69.5606 259.867L67.7496 258.696ZM69.9023 254.421C69.4903 254.155 69.1277 254.043 68.8149 254.085C68.4865 254.131 68.2106 254.326 67.9876 254.671C67.7646 255.016 67.7058 255.338 67.8113 255.637C67.901 255.94 68.1519 256.224 68.5639 256.491L70.8063 257.94L72.1447 255.871L69.9023 254.421Z" fill="white" fill-opacity="0.8"/>
  <path fill-rule="evenodd" clip-rule="evenodd" d="M219.462 249.437C220.305 249.234 221.133 249.193 221.948 249.313C222.76 249.449 223.515 249.735 224.214 250.17C224.912 250.604 225.515 251.194 226.024 251.938C226.532 252.682 226.863 253.459 227.015 254.267C227.167 255.075 227.155 255.878 226.981 256.674C226.804 257.487 226.468 258.249 225.973 258.96C225.478 259.672 224.835 260.298 224.043 260.839C223.243 261.387 222.426 261.758 221.592 261.955C220.75 262.158 219.923 262.191 219.111 262.055C218.305 261.928 217.553 261.647 216.855 261.212C216.148 260.784 215.54 260.197 215.031 259.453C214.522 258.709 214.193 257.925 214.044 257.1C213.892 256.292 213.904 255.49 214.078 254.693C214.252 253.897 214.587 253.143 215.082 252.431C215.567 251.726 216.21 251.1 217.011 250.552C217.802 250.011 218.619 249.64 219.462 249.437ZM221.025 252.329C220.612 252.251 220.201 252.256 219.79 252.343C219.37 252.437 218.972 252.612 218.595 252.87C218.219 253.127 217.915 253.432 217.685 253.783C217.446 254.14 217.291 254.521 217.223 254.927C217.152 255.349 217.17 255.779 217.276 256.218C217.373 256.663 217.567 257.097 217.857 257.521C218.153 257.955 218.487 258.293 218.861 258.535C219.231 258.794 219.622 258.961 220.034 259.039C220.444 259.132 220.859 259.132 221.278 259.039C221.689 258.952 222.082 258.779 222.459 258.522C222.836 258.264 223.144 257.957 223.384 257.6C223.614 257.249 223.764 256.862 223.836 256.44C223.904 256.035 223.889 255.609 223.792 255.164C223.692 254.735 223.494 254.304 223.198 253.87C222.908 253.446 222.578 253.105 222.208 252.847C221.828 252.595 221.434 252.422 221.025 252.329Z" fill="white" fill-opacity="0.8"/>
  <path fill-rule="evenodd" clip-rule="evenodd" d="M56.8029 243.52C57.6155 243.455 58.4341 243.556 59.2587 243.823C60.0745 244.083 60.8607 244.516 61.6171 245.123C62.3646 245.723 62.9581 246.397 63.397 247.144C63.836 247.891 64.1162 248.673 64.2379 249.487C64.3435 250.303 64.2895 251.109 64.0762 251.903C63.8629 252.698 63.4743 253.447 62.9101 254.15C62.3459 254.852 61.6991 255.394 60.9697 255.774C60.2403 256.155 59.469 256.377 58.6563 256.442C57.8276 256.508 57.001 256.408 56.1763 256.141C55.3517 255.874 54.5655 255.441 53.818 254.841C53.0616 254.234 52.4681 253.56 52.038 252.82C51.599 252.073 51.327 251.291 51.2213 250.474C51.1085 249.667 51.1586 248.866 51.3719 248.072C51.5763 247.27 51.9607 246.518 52.525 245.815C53.0892 245.112 53.744 244.569 54.4894 244.187C55.2189 243.807 55.9901 243.585 56.8029 243.52ZM58.7224 246.706C58.311 246.581 57.9012 246.545 57.493 246.597C57.0689 246.652 56.6623 246.794 56.2735 247.023C55.8757 247.246 55.5161 247.557 55.1947 247.957C54.8662 248.367 54.64 248.785 54.5164 249.212C54.3767 249.642 54.3295 250.065 54.3751 250.482C54.4048 250.901 54.5257 251.297 54.7372 251.672C54.9397 252.039 55.2188 252.366 55.5747 252.652C55.9307 252.937 56.3147 253.143 56.7261 253.268C57.1286 253.387 57.5419 253.418 57.9661 253.364C58.3743 253.311 58.7773 253.174 59.1751 252.952C59.5568 252.731 59.9118 252.416 60.2404 252.007C60.5617 251.606 60.7921 251.191 60.9318 250.762C61.0625 250.326 61.1133 249.898 61.0836 249.479C61.0379 249.062 60.9139 248.67 60.7114 248.303C60.4999 247.928 60.2159 247.598 59.86 247.312C59.504 247.027 59.1249 246.825 58.7224 246.706Z" fill="white" fill-opacity="0.8"/>
  <path fill-rule="evenodd" clip-rule="evenodd" d="M239.08 248.733L234.636 252.49C233.538 253.418 232.512 253.927 231.557 254.017C230.6 254.123 229.802 253.797 229.161 253.039C228.535 252.299 228.324 251.475 228.53 250.569C228.575 250.377 228.639 250.186 228.719 249.998C228.34 250.151 227.97 250.243 227.607 250.273C226.685 250.366 225.892 250.02 225.229 249.236C224.551 248.434 224.327 247.533 224.557 246.532C224.778 245.538 225.476 244.545 226.653 243.55L231.345 239.583L239.08 248.733ZM231.79 248.62C231.424 248.929 231.212 249.235 231.155 249.538C231.104 249.85 231.204 250.154 231.455 250.45C231.705 250.746 231.984 250.891 232.293 250.885C232.608 250.887 232.949 250.733 233.315 250.424L234.962 249.032L233.437 247.228L231.79 248.62ZM228.326 245.318C227.951 245.635 227.739 245.949 227.689 246.26C227.637 246.588 227.743 246.909 228.009 247.222C228.274 247.536 228.565 247.686 228.882 247.672C229.198 247.674 229.543 247.517 229.918 247.2L231.957 245.476L230.365 243.594L228.326 245.318Z" fill="white" fill-opacity="0.8"/>
  <path fill-rule="evenodd" clip-rule="evenodd" d="M49.3091 230.898L47.5965 232.598L52.9988 238.04L54.7115 236.34L56.9061 238.551L53.2862 242.144L52.969 241.825C52.7098 241.577 52.4088 241.461 52.0662 241.474C51.6789 241.489 51.2547 241.62 50.794 241.869C50.3251 242.109 49.8236 242.447 49.2895 242.88C48.7474 243.306 48.1767 243.792 47.5777 244.338L44.8577 246.846L38.0566 239.995L44.652 233.447L43.5067 232.293L47.1263 228.7L49.3091 230.898ZM42.3149 240.471L44.7389 242.912L45.6981 242.032C46.2081 241.558 46.7019 241.132 47.1793 240.755C47.6487 240.369 48.1018 240.04 48.5385 239.767C48.9671 239.486 49.3753 239.282 49.763 239.154C49.9149 239.102 50.0622 239.064 50.2046 239.04L47.0034 235.815L42.3149 240.471Z" fill="white" fill-opacity="0.8"/>
  <path fill-rule="evenodd" clip-rule="evenodd" d="M251.619 235.807L247.687 240.097C246.716 241.157 245.762 241.793 244.827 242.003C243.892 242.23 243.058 242.007 242.326 241.337C241.611 240.681 241.298 239.891 241.387 238.967C241.408 238.77 241.447 238.573 241.502 238.376C241.145 238.576 240.79 238.715 240.434 238.791C239.531 239 238.7 238.757 237.943 238.063C237.169 237.354 236.833 236.488 236.933 235.467C237.026 234.453 237.593 233.378 238.634 232.242L242.785 227.712L251.619 235.807ZM244.374 236.62C244.05 236.973 243.879 237.304 243.86 237.611C243.849 237.927 243.987 238.215 244.273 238.477C244.559 238.74 244.854 238.848 245.159 238.802C245.473 238.764 245.791 238.569 246.115 238.215L247.572 236.626L245.831 235.03L244.374 236.62ZM240.519 233.784C240.187 234.145 240.016 234.484 240.006 234.799C239.996 235.131 240.142 235.436 240.445 235.713C240.748 235.991 241.056 236.102 241.368 236.048C241.682 236.01 242.004 235.81 242.336 235.449L244.14 233.48L242.323 231.815L240.519 233.784Z" fill="white" fill-opacity="0.8"/>
  <path d="M43.9708 228.662L34.6268 236.161L28.7453 228.833L30.7877 227.194L34.5693 231.906L36.1444 230.641L32.813 226.49L34.7885 224.905L38.1199 229.056L39.8288 227.685L35.9076 222.799L37.9501 221.16L43.9708 228.662Z" fill="white" fill-opacity="0.8"/>
  <path d="M263.143 220.423L261.19 223.192L257.511 220.598L254.847 224.374L258.526 226.969L256.573 229.738L246.782 222.833L248.735 220.063L252.554 222.756L255.217 218.98L251.399 216.287L253.352 213.517L263.143 220.423Z" fill="white" fill-opacity="0.8"/>
  <path fill-rule="evenodd" clip-rule="evenodd" d="M24.3054 209.772C25.0962 209.794 25.8564 210.05 26.5861 210.538C27.3002 211.023 27.9444 211.732 28.5188 212.665L29.6135 214.443L32.2812 212.8L34.0579 215.686L23.856 221.969L20.9842 217.305C20.4098 216.372 20.0665 215.478 19.9548 214.622C19.8372 213.756 19.9515 212.962 20.2973 212.24C20.6334 211.524 21.1902 210.926 21.9674 210.448C22.735 209.975 23.5145 209.75 24.3054 209.772ZM25.1339 213.141C24.6861 213.001 24.2289 213.076 23.7625 213.363C23.2865 213.656 23.01 214.034 22.9331 214.497C22.8504 214.95 22.9945 215.477 23.3654 216.079L24.3523 217.682L27.34 215.843L26.3531 214.24C25.9821 213.637 25.5757 213.271 25.1339 213.141Z" fill="white" fill-opacity="0.8"/>
  <path d="M269.889 208.774L265.259 216.951L262.98 215.661L265.957 210.404L264.199 209.409L261.577 214.041L259.373 212.793L261.995 208.16L260.089 207.081L257.002 212.533L254.723 211.242L259.463 202.871L269.889 208.774Z" fill="white" fill-opacity="0.8"/>
  <path fill-rule="evenodd" clip-rule="evenodd" d="M19.3622 196.011C20.1842 195.982 20.9758 196.114 21.7368 196.406C22.498 196.698 23.1932 197.143 23.8221 197.739C24.4461 198.325 24.9684 199.056 25.389 199.929C25.8047 200.793 26.0496 201.657 26.1233 202.52C26.197 203.384 26.113 204.209 25.8715 204.997C25.6147 205.779 25.2188 206.482 24.6837 207.107C24.1486 207.732 23.4748 208.24 22.6625 208.631C21.8503 209.021 21.0332 209.231 20.2111 209.26C19.389 209.288 18.5972 209.156 17.8361 208.864C17.0598 208.567 16.3572 208.12 15.7283 207.523C15.0994 206.927 14.5771 206.197 14.1614 205.333C13.7408 204.459 13.4959 203.595 13.4272 202.742C13.3534 201.878 13.4451 201.056 13.7018 200.274C13.9483 199.496 14.339 198.795 14.8741 198.171C15.4042 197.536 16.0757 197.022 16.8879 196.632C17.7001 196.241 18.5249 196.034 19.3622 196.011ZM21.0324 199.481C20.6261 199.347 20.198 199.3 19.7483 199.339C19.2936 199.368 18.8351 199.494 18.3724 199.716C17.8994 199.944 17.5149 200.224 17.2189 200.556C16.9078 200.883 16.6829 201.245 16.5443 201.641C16.3904 202.032 16.3281 202.442 16.3573 202.871C16.3816 203.289 16.4929 203.704 16.6908 204.116C16.8887 204.527 17.1463 204.878 17.4634 205.169C17.7756 205.449 18.1348 205.656 18.541 205.789C18.932 205.918 19.3549 205.968 19.8095 205.939C20.2489 205.905 20.7051 205.774 21.1781 205.546C21.6407 205.323 22.0277 205.049 22.3389 204.722C22.6451 204.384 22.8752 204.02 23.0291 203.629C23.1677 203.234 23.2248 202.826 23.2005 202.407C23.1712 201.978 23.0576 201.558 22.8597 201.147C22.6617 200.735 22.4065 200.39 22.0944 200.109C21.7773 199.819 21.4233 199.609 21.0324 199.481Z" fill="white" fill-opacity="0.8"/>
  <path fill-rule="evenodd" clip-rule="evenodd" d="M268.501 189.322L268.325 189.724C268.187 190.06 268.188 190.386 268.328 190.703C268.485 191.057 268.763 191.403 269.164 191.74C269.561 192.087 270.059 192.429 270.659 192.765C271.255 193.112 271.917 193.463 272.646 193.819L275.98 195.423L272.12 204.271L263.601 200.554L262.951 202.045L258.276 200.005L259.515 197.166L261.727 198.131L264.793 191.103L262.581 190.138L263.826 187.282L268.501 189.322ZM264.935 197.495L270.991 200.137L272.367 196.984L271.195 196.416C270.566 196.117 269.988 195.815 269.461 195.511C268.93 195.217 268.457 194.917 268.042 194.612C267.623 194.317 267.283 194.013 267.021 193.699C266.916 193.577 266.827 193.454 266.752 193.33L264.935 197.495Z" fill="white" fill-opacity="0.8"/>
  <path d="M17.0132 178.995L13.3823 182.64L13.8259 183.989L18.1838 182.557L19.2205 185.711L14.8626 187.143L15.3075 188.496L20.3964 189.288L21.6205 193.012L14.5835 191.73L10.1741 196.558L9.06273 193.176L12.7353 189.441L12.261 187.999L7.83866 189.452L6.80153 186.298L11.2243 184.844L10.7676 183.455L5.58318 182.591L4.47667 179.225L10.886 180.48L15.7945 175.288L17.0132 178.995Z" fill="white" fill-opacity="0.8"/>
  <path d="M276.61 174.695L282.971 173.184L281.988 176.605L276.851 177.627L276.431 179.087L280.906 180.373L279.989 183.564L275.514 182.278L275.11 183.683L278.911 187.315L277.933 190.72L273.339 186.076L266.361 187.608L267.438 183.858L272.49 182.887L272.882 181.522L268.474 180.255L269.39 177.064L273.799 178.33L274.192 176.962L270.43 173.445L271.513 169.678L276.61 174.695Z" fill="white" fill-opacity="0.8"/>
  <path fill-rule="evenodd" clip-rule="evenodd" d="M16.0761 163.437L13.7039 163.88L15.1116 171.418L17.4842 170.975L18.0561 174.037L13.0423 174.973L12.9606 174.537C12.8861 174.184 12.7027 173.916 12.41 173.734C12.0814 173.528 11.6569 173.398 11.1362 173.345C10.6133 173.28 10.0091 173.276 9.32354 173.335C8.63592 173.382 7.89067 173.463 7.08806 173.578L3.42852 174.122L1.6563 164.633L10.7921 162.926L10.4937 161.328L15.5075 160.392L16.0761 163.437ZM4.91054 167.421L5.54196 170.803L6.83011 170.614C7.51848 170.509 8.16631 170.434 8.77334 170.39C9.37826 170.335 9.93805 170.318 10.4525 170.338C10.9649 170.347 11.4176 170.407 11.81 170.52C11.9651 170.562 12.1078 170.614 12.239 170.674L11.4047 166.208L4.91054 167.421Z" fill="white" fill-opacity="0.8"/>
  <path fill-rule="evenodd" clip-rule="evenodd" d="M276.935 155.946C277.728 155.729 278.571 155.686 279.462 155.817C280.354 155.949 281.149 156.233 281.845 156.67C282.542 157.107 283.124 157.66 283.591 158.329C284.067 159.01 284.398 159.774 284.585 160.621C284.772 161.467 284.795 162.365 284.655 163.313C284.514 164.272 284.232 165.125 283.811 165.87C283.388 166.627 282.851 167.257 282.2 167.761C281.56 168.266 280.844 168.627 280.051 168.845C279.256 169.074 278.412 169.123 277.52 168.991C276.629 168.86 275.829 168.569 275.123 168.119C274.426 167.682 273.845 167.129 273.378 166.46C272.911 165.792 272.585 165.034 272.398 164.188C272.21 163.352 272.186 162.455 272.328 161.496C272.468 160.548 272.749 159.695 273.172 158.939C273.595 158.182 274.127 157.545 274.768 157.028C275.419 156.525 276.141 156.164 276.935 155.946ZM278.963 159.204C278.455 159.129 277.981 159.14 277.54 159.236C277.097 159.344 276.702 159.516 276.356 159.754C276.019 160.004 275.744 160.31 275.529 160.67C275.313 161.042 275.172 161.454 275.105 161.905C275.038 162.357 275.056 162.786 275.157 163.193C275.257 163.611 275.433 163.983 275.685 164.309C275.946 164.647 276.274 164.926 276.669 165.146C277.061 165.377 277.512 165.53 278.02 165.605C278.539 165.681 279.014 165.665 279.446 165.555C279.887 165.459 280.276 165.285 280.612 165.035C280.959 164.798 281.24 164.493 281.456 164.121C281.671 163.761 281.811 163.355 281.878 162.903C281.945 162.452 281.928 162.017 281.828 161.599C281.727 161.191 281.545 160.819 281.284 160.48C281.032 160.155 280.71 159.876 280.317 159.646C279.934 159.428 279.483 159.28 278.963 159.204Z" fill="white" fill-opacity="0.8"/>
  <path d="M12.9161 158.714L0.974272 159.683L0.213874 150.317L2.82404 150.105L3.31301 156.127L5.32605 155.964L4.89544 150.658L7.4203 150.453L7.85091 155.759L10.0345 155.582L9.52762 149.338L12.1378 149.126L12.9161 158.714Z" fill="white" fill-opacity="0.8"/>
  <path fill-rule="evenodd" clip-rule="evenodd" d="M285.951 143.923L285.719 149.395C285.672 150.489 285.455 151.422 285.069 152.194C284.681 152.977 284.142 153.571 283.451 153.975C282.771 154.38 281.976 154.564 281.064 154.525C280.163 154.487 279.391 154.237 278.749 153.775C278.106 153.314 277.619 152.677 277.288 151.863C276.968 151.062 276.831 150.114 276.878 149.019L276.966 146.933L273.837 146.8L273.981 143.414L285.951 143.923ZM279.554 148.927C279.524 149.634 279.656 150.165 279.949 150.52C280.242 150.886 280.662 151.082 281.209 151.105C281.768 151.129 282.208 150.97 282.531 150.63C282.853 150.301 283.03 149.783 283.06 149.076L283.139 147.195L279.634 147.046L279.554 148.927Z" fill="white" fill-opacity="0.8"/>
  <path d="M12.199 134.745L12.1337 138.133L7.46152 138.043L7.37255 142.663L12.0443 142.753L11.979 146.142L0 145.911L0.0653052 142.522L4.56606 142.609L4.65504 137.988L0.154692 137.902L0.219997 134.513L12.199 134.745Z" fill="white" fill-opacity="0.8"/>
  <path fill-rule="evenodd" clip-rule="evenodd" d="M275.18 122.227C275.224 122.584 275.384 122.867 275.661 123.073C275.971 123.306 276.383 123.47 276.897 123.568C277.413 123.676 278.014 123.731 278.703 123.73C279.392 123.741 280.141 123.723 280.951 123.676L284.643 123.442L285.609 133.047L276.361 133.977L276.524 135.595L271.45 136.106L271.139 133.023L273.541 132.782L272.773 125.152L270.372 125.394L270.06 122.294L275.135 121.784L275.18 122.227ZM276.027 130.657L282.601 129.995L282.257 126.572L280.958 126.651C280.263 126.698 279.611 126.718 279.003 126.711C278.395 126.714 277.836 126.684 277.325 126.621C276.815 126.569 276.369 126.471 275.987 126.326C275.836 126.27 275.699 126.206 275.573 126.135L276.027 130.657Z" fill="white" fill-opacity="0.8"/>
  <path fill-rule="evenodd" clip-rule="evenodd" d="M3.1122 117.48C3.76194 116.77 4.57763 116.49 5.5591 116.638C6.5181 116.784 7.21844 117.265 7.6603 118.082C7.75272 118.257 7.83016 118.441 7.89417 118.636C8.07873 118.271 8.29685 117.958 8.54967 117.697C9.18302 117.019 10.0074 116.757 11.0227 116.911C12.0607 117.068 12.8229 117.599 13.3092 118.504C13.7972 119.397 13.9262 120.605 13.6957 122.128L12.7761 128.204L0.929783 126.411L1.80038 120.657C2.0155 119.236 2.45285 118.176 3.1122 117.48ZM10.2566 120.258C9.85056 120.196 9.53286 120.275 9.30354 120.494C9.06461 120.7 8.90839 121.046 8.83498 121.531L8.43539 124.171L10.8725 124.54L11.2721 121.9C11.3455 121.415 11.2985 121.038 11.1313 120.771C10.9545 120.49 10.6627 120.319 10.2566 120.258ZM5.53788 120.097C5.15428 120.039 4.8484 120.114 4.62075 120.322C4.38188 120.528 4.22675 120.868 4.15504 121.342L3.83219 123.475L6.16767 123.828L6.49052 121.695C6.5622 121.222 6.51992 120.852 6.36399 120.586C6.19676 120.318 5.92138 120.155 5.53788 120.097Z" fill="white" fill-opacity="0.8"/>
  <path fill-rule="evenodd" clip-rule="evenodd" d="M275.143 106.301C276.023 106.109 276.867 106.094 277.673 106.256C278.48 106.419 279.219 106.73 279.892 107.19C280.579 107.659 281.159 108.257 281.633 108.982C282.107 109.708 282.446 110.539 282.651 111.475C282.858 112.423 282.897 113.32 282.766 114.166C282.638 115.023 282.359 115.802 281.928 116.504C281.509 117.203 280.966 117.794 280.301 118.278C279.639 118.774 278.867 119.118 277.986 119.31C277.106 119.503 276.255 119.513 275.435 119.342C274.629 119.18 273.889 118.868 273.216 118.408C272.544 117.948 271.97 117.355 271.496 116.629C271.025 115.915 270.685 115.084 270.478 114.136C270.273 113.2 270.235 112.303 270.363 111.445C270.491 110.588 270.764 109.805 271.181 109.094C271.611 108.393 272.159 107.8 272.824 107.316C273.489 106.832 274.262 106.493 275.143 106.301ZM277.296 109.58C276.861 109.511 276.386 109.533 275.874 109.645C275.372 109.755 274.932 109.933 274.554 110.179C274.178 110.436 273.87 110.737 273.63 111.082C273.403 111.435 273.253 111.818 273.18 112.231C273.109 112.655 273.123 113.091 273.22 113.536C273.318 113.982 273.486 114.378 273.725 114.723C273.966 115.079 274.262 115.364 274.613 115.58C274.977 115.804 275.383 115.949 275.829 116.015C276.278 116.092 276.754 116.075 277.255 115.966C277.768 115.854 278.207 115.67 278.572 115.415C278.95 115.169 279.252 114.87 279.479 114.516C279.719 114.172 279.874 113.787 279.945 113.363C280.018 112.95 280.006 112.52 279.909 112.074C279.811 111.629 279.642 111.228 279.4 110.872C279.162 110.527 278.86 110.242 278.496 110.018C278.145 109.803 277.745 109.657 277.296 109.58Z" fill="white" fill-opacity="0.8"/>
  <path fill-rule="evenodd" clip-rule="evenodd" d="M7.35908 100.23C8.09276 99.6077 8.93735 99.4318 9.89251 99.7023C10.8256 99.9667 11.4599 100.532 11.7957 101.398C11.8655 101.583 11.919 101.776 11.9582 101.977C12.1871 101.639 12.4427 101.355 12.7263 101.128C13.4397 100.535 14.2905 100.379 15.2786 100.659C16.2885 100.945 16.9781 101.567 17.3471 102.525C17.7192 103.473 17.6951 104.687 17.2753 106.17L15.601 112.082L4.073 108.816L5.6591 103.217C6.05091 101.834 6.61756 100.838 7.35908 100.23ZM14.0986 103.882C13.7034 103.77 13.3781 103.809 13.1231 103.997C12.8602 104.172 12.6621 104.496 12.5284 104.968L11.8006 107.537L14.172 108.208L14.8998 105.639C15.0335 105.167 15.0341 104.788 14.9018 104.501C14.7616 104.2 14.4938 103.994 14.0986 103.882ZM9.43701 103.131C9.06374 103.026 8.751 103.061 8.49906 103.239C8.23616 103.414 8.03946 103.732 7.90887 104.193L7.32112 106.268L9.59374 106.911L10.1815 104.837C10.3121 104.375 10.3167 104.003 10.1954 103.719C10.063 103.433 9.81021 103.237 9.43701 103.131Z" fill="white" fill-opacity="0.8"/>
  <path fill-rule="evenodd" clip-rule="evenodd" d="M278.762 98.2534C279.216 99.6174 279.308 100.759 279.037 101.679C278.78 102.607 278.181 103.227 277.239 103.541C276.319 103.847 275.476 103.737 274.712 103.21C274.55 103.096 274.397 102.966 274.252 102.822C274.253 103.23 274.201 103.608 274.094 103.956C273.837 104.847 273.222 105.455 272.248 105.779C271.252 106.111 270.332 105.985 269.488 105.4C268.647 104.826 267.984 103.808 267.497 102.346L265.556 96.5158L276.924 92.7318L278.762 98.2534ZM268.917 98.915L269.76 101.448C269.915 101.914 270.128 102.228 270.398 102.39C270.683 102.56 271.02 102.58 271.41 102.45C271.8 102.321 272.047 102.106 272.152 101.807C272.271 101.515 272.253 101.136 272.098 100.67L271.255 98.1366L268.917 98.915ZM273.431 97.4122L274.112 99.4583C274.264 99.9129 274.469 100.224 274.729 100.39C274.999 100.552 275.319 100.572 275.687 100.45C276.055 100.327 276.293 100.121 276.402 99.8329C276.521 99.5407 276.504 99.1672 276.353 98.7126L275.672 96.6661L273.431 97.4122Z" fill="white" fill-opacity="0.8"/>
  <path fill-rule="evenodd" clip-rule="evenodd" d="M15.5941 85.9417C16.4205 85.9044 17.2521 86.0535 18.0887 86.3891C18.9254 86.7246 19.6347 87.1936 20.2169 87.796C20.7926 88.3834 21.2298 89.0563 21.5279 89.8151C21.8259 90.574 21.9672 91.3869 21.9515 92.2535C21.9401 93.1094 21.7538 93.9876 21.3928 94.8877C21.0359 95.7773 20.5636 96.541 19.976 97.1783C19.3885 97.8155 18.7226 98.3104 17.9785 98.6636C17.2281 99.0019 16.4419 99.1846 15.6198 99.2113C14.7976 99.2381 13.9683 99.0836 13.1316 98.7481C12.295 98.4125 11.5887 97.9511 11.0129 97.3636C10.4371 96.7761 10.0004 96.1029 9.70231 95.344C9.39793 94.5704 9.2532 93.7503 9.26885 92.8837C9.2845 92.0171 9.47084 91.139 9.82761 90.2494C10.1887 89.3492 10.661 88.5855 11.2443 87.9588C11.8318 87.3216 12.5009 86.8339 13.2512 86.4956C13.991 86.1531 14.772 85.9685 15.5941 85.9417ZM15.4161 89.2821C14.9649 89.2732 14.5464 89.3511 14.1606 89.5159C13.7685 89.666 13.4237 89.8966 13.1267 90.2078C12.8341 90.5084 12.6028 90.8707 12.4329 91.2943C12.263 91.7178 12.1778 92.1446 12.1774 92.5747C12.1812 92.9942 12.2709 93.3993 12.4464 93.7894C12.6155 94.1646 12.8643 94.5101 13.1925 94.8261C13.5143 95.1273 13.9187 95.3756 14.4059 95.571C14.8825 95.7621 15.3464 95.8621 15.7977 95.871C16.2532 95.8693 16.6771 95.7936 17.0691 95.6436C17.4549 95.4787 17.7944 95.2458 18.0871 94.9453C18.384 94.6341 18.6176 94.2664 18.7875 93.8428C18.9573 93.4193 19.0403 92.9978 19.0365 92.5784C19.0369 92.1482 18.9525 91.7454 18.7834 91.3702C18.6079 90.9802 18.3538 90.6324 18.0214 90.327C17.6933 90.0109 17.291 89.7573 16.8145 89.5662C16.3273 89.3708 15.8611 89.2761 15.4161 89.2821Z" fill="white" fill-opacity="0.8"/>
  <path fill-rule="evenodd" clip-rule="evenodd" d="M272.319 82.063C272.938 83.3607 273.17 84.4827 273.014 85.4291C272.874 86.3809 272.355 87.0704 271.459 87.4976C270.583 87.9149 269.734 87.9093 268.91 87.4805C268.735 87.3872 268.568 87.277 268.406 87.1519C268.457 87.5573 268.452 87.939 268.389 88.2972C268.244 89.2132 267.708 89.8924 266.781 90.3343C265.834 90.786 264.905 90.7736 263.995 90.2972C263.091 89.831 262.307 88.9024 261.644 87.5119L259 81.9654L269.815 76.8096L272.319 82.063ZM262.63 83.9324L263.779 86.3425C263.99 86.7854 264.24 87.0709 264.528 87.1988C264.832 87.3322 265.169 87.3103 265.54 87.1335C265.911 86.9568 266.13 86.7134 266.197 86.4033C266.279 86.0987 266.215 85.725 266.004 85.2821L264.855 82.8716L262.63 83.9324ZM266.925 81.8846L267.853 83.8315C268.059 84.2641 268.302 84.5469 268.58 84.6797C268.868 84.8076 269.188 84.7883 269.538 84.6213C269.888 84.4544 270.099 84.2207 270.171 83.9209C270.253 83.6163 270.192 83.2477 269.986 82.8152L269.057 80.8683L266.925 81.8846Z" fill="white" fill-opacity="0.8"/>
  <path fill-rule="evenodd" clip-rule="evenodd" d="M27.671 75.1884L28.4461 73.759L32.9301 76.1896L31.4538 78.9132L29.3322 77.7631L25.678 84.5046L27.7996 85.6544L26.3151 88.3931L21.8311 85.9625L22.0429 85.5715C22.2073 85.2505 22.2337 84.9271 22.1213 84.6013C21.9956 84.2347 21.7471 83.8665 21.3764 83.4968C21.0112 83.1172 20.5441 82.7339 19.9748 82.3475C19.411 81.951 18.781 81.5449 18.085 81.1287L14.9002 79.2463L19.5001 70.7595L27.671 75.1884ZM18.6328 77.999L19.752 78.6639C20.353 79.0156 20.9031 79.3657 21.4021 79.7141C21.9066 80.0524 22.3522 80.3916 22.7393 80.7312C23.1317 81.0607 23.4452 81.3926 23.6793 81.7271C23.773 81.8575 23.8512 81.9878 23.9152 82.1173L26.0804 78.1226L20.2724 74.9745L18.6328 77.999Z" fill="white" fill-opacity="0.8"/>
  <path d="M261.317 62.72L257.546 65.1779L260.069 69.0497L263.84 66.5918L265.691 69.4305L255.654 75.9733L253.803 73.1341L257.717 70.5823L255.194 66.711L251.28 69.2628L249.429 66.4236L259.466 59.8809L261.317 62.72Z" fill="white" fill-opacity="0.8"/>
  <path d="M29.442 60.369L26.0323 65.3571L27.6996 66.4967L30.7036 62.1025L32.795 63.5318L29.7906 67.9261L31.5995 69.1628L35.135 63.9914L37.2966 65.4689L31.8681 73.4101L21.9772 66.6485L27.2804 58.8911L29.442 60.369Z" fill="white" fill-opacity="0.8"/>
  <path d="M257.004 56.6499L254.961 58.2891L251.18 53.5769L249.604 54.8409L252.936 58.9923L250.96 60.578L247.629 56.4262L245.92 57.7976L249.841 62.6833L247.799 64.3224L241.778 56.8205L251.122 49.3214L257.004 56.6499Z" fill="white" fill-opacity="0.8"/>
  <path fill-rule="evenodd" clip-rule="evenodd" d="M38.237 46.4035C39.0309 46.0391 39.8237 45.9174 40.6153 46.0382C41.3984 46.1514 42.132 46.5102 42.8161 47.1145C43.4916 47.7113 43.9337 48.3914 44.1426 49.1545C44.3515 49.9176 44.3284 50.7194 44.0732 51.5598C43.817 52.384 43.3263 53.2066 42.601 54.0275L41.2182 55.5924L43.5659 57.6666L41.3219 60.2062L32.3432 52.2732L35.9697 48.1688C36.695 47.3479 37.4506 46.7593 38.237 46.4035ZM40.5496 49.6802C40.1306 49.31 39.6886 49.1554 39.2235 49.2165C38.766 49.2691 38.3029 49.5603 37.8346 50.0904L36.5876 51.5014L39.2174 53.8246L40.4639 52.4136C40.9323 51.8834 41.1645 51.3881 41.1602 50.9275C41.1635 50.4585 40.96 50.0428 40.5496 49.6802Z" fill="white" fill-opacity="0.8"/>
  <path fill-rule="evenodd" clip-rule="evenodd" d="M247.987 45.8545L241.368 52.3781L242.509 53.5365L238.876 57.1168L236.701 54.9103L238.421 53.2165L233.038 47.7549L231.319 49.4492L229.132 47.2304L232.765 43.6501L233.079 43.9684C233.338 44.2182 233.639 44.3372 233.983 44.3248C234.37 44.3114 234.795 44.1813 235.256 43.9346C235.726 43.6959 236.229 43.3607 236.764 42.9289C237.308 42.5052 237.88 42.021 238.481 41.4766L241.211 38.9791L247.987 45.8545ZM240.353 43.7901C239.841 44.2624 239.346 44.6866 238.867 45.0623C238.396 45.4462 237.942 45.7736 237.504 46.0447C237.075 46.324 236.666 46.5266 236.277 46.6529C236.125 46.7046 235.978 46.7413 235.835 46.7647L239.025 50.001L243.73 45.3639L241.315 42.9134L240.353 43.7901Z" fill="white" fill-opacity="0.8"/>
  <path fill-rule="evenodd" clip-rule="evenodd" d="M50.516 35.8714C51.3312 35.8828 52.1154 36.0544 52.8682 36.3861C53.6293 36.7101 54.3143 37.2044 54.9233 37.8689C55.5323 38.5335 55.9689 39.2634 56.2331 40.0583C56.4979 40.837 56.6005 41.633 56.5408 42.446C56.4811 43.259 56.2568 44.0528 55.8678 44.8272C55.487 45.594 54.9388 46.305 54.2237 46.9602C53.517 47.6078 52.761 48.0918 51.9556 48.4121C51.1502 48.7322 50.3355 48.8908 49.5119 48.8871C48.6891 48.8674 47.9014 48.6914 47.1487 48.3598C46.396 48.0282 45.7149 47.5301 45.1059 46.8655C44.4969 46.2009 44.0597 45.4791 43.7949 44.7003C43.5301 43.9215 43.4278 43.1256 43.4875 42.3125C43.5479 41.4833 43.7727 40.6814 44.1618 39.9069C44.551 39.1324 45.0988 38.4214 45.8055 37.7738C46.5205 37.1186 47.2766 36.6345 48.0736 36.322C48.879 36.0018 49.6931 35.8517 50.516 35.8714ZM50.0287 38.9877C49.6103 38.9533 49.2 39.0124 48.7977 39.1644C48.4037 39.3088 48.0383 39.5348 47.7018 39.8432C47.3653 40.1516 47.1038 40.4997 46.9173 40.8873C46.7392 41.2672 46.645 41.6711 46.6344 42.0987C46.6246 42.5101 46.6991 42.9294 46.8581 43.3562C47.0178 43.7669 47.275 44.1656 47.6295 44.5525C47.9764 44.9311 48.3514 45.2222 48.7544 45.4256C49.1658 45.6212 49.5809 45.736 49.9993 45.7705C50.4184 45.7887 50.8253 45.7258 51.2193 45.5815C51.6216 45.4294 51.991 45.1992 52.3274 44.8909C52.6639 44.5826 52.9211 44.2385 53.0992 43.8587C53.2857 43.4711 53.384 43.0714 53.3939 42.6599C53.4045 42.2323 53.3259 41.8089 53.1584 41.3897C52.9994 40.9628 52.7465 40.5601 52.3997 40.1816C52.045 39.7946 51.6658 39.5076 51.2621 39.3204C50.8591 39.117 50.4478 39.006 50.0287 38.9877Z" fill="white" fill-opacity="0.8"/>
  <path d="M225.733 26.1993L224.766 31.347L225.964 32.2804L228.825 28.6078L231.445 30.6482L228.584 34.3208L229.737 35.2192L234.524 33.0462L237.319 35.2233L231.298 37.7551L230.119 44.8019L227.04 42.404L228.022 37.3543L226.901 36.4816L224.082 40.1007L221.463 38.0604L224.282 34.4412L223.158 33.5661L218.492 35.7465L215.4 33.338L221.956 30.4776L222.924 24.0116L225.733 26.1993Z" fill="white" fill-opacity="0.8"/>
  <path d="M68.2337 27.685L74.634 30.8609L71.4451 33.1102L66.8986 30.7033L65.7378 31.5221L68.3819 35.2706L65.6684 37.1845L63.0244 33.4355L61.8607 34.2563L62.5913 39.3546L59.3881 41.6138L58.5563 34.5098L52.6507 31.7045L55.56 29.6527L60.2048 32.0731L61.4461 31.198L58.7628 27.3936L61.4763 25.4797L64.1595 29.2842L65.3542 28.4413L64.6656 23.2304L67.5607 21.1884L68.2337 27.685Z" fill="white" fill-opacity="0.8"/>
  <path fill-rule="evenodd" clip-rule="evenodd" d="M84.4604 22.6573L85.8988 21.8986L88.2791 26.4091L85.5396 27.8552L84.4131 25.721L77.6315 29.3001L78.758 31.4343L76.003 32.8882L73.6222 28.3776L74.014 28.1707C74.3299 27.9948 74.5318 27.7402 74.6193 27.4062C74.7183 27.0314 74.716 26.5873 74.6128 26.074C74.5197 25.5555 74.3436 24.9775 74.0846 24.3402C73.8357 23.6974 73.5374 23.0098 73.1896 22.2773L71.5851 18.9435L80.1225 14.4378L84.4604 22.6573ZM75.3826 19.9782L75.9442 21.1524C76.2489 21.7786 76.5123 22.375 76.734 22.9418C76.9658 23.5032 77.1483 24.0327 77.2817 24.5299C77.4252 25.0218 77.5013 25.472 77.5103 25.8801C77.5159 26.0408 77.5086 26.1928 77.4899 26.336L81.5086 24.2153L78.425 18.3721L75.3826 19.9782Z" fill="white" fill-opacity="0.8"/>
  <path fill-rule="evenodd" clip-rule="evenodd" d="M210.034 18.286C210.845 18.1023 211.678 18.0841 212.532 18.2309C213.386 18.3777 214.226 18.6948 215.051 19.1823C215.886 19.6756 216.569 20.2581 217.1 20.9296C217.641 21.6069 218.022 22.3423 218.243 23.1353C218.469 23.9184 218.533 24.7182 218.435 25.5348C218.347 26.3574 218.073 27.157 217.615 27.9332C217.156 28.7092 216.585 29.3392 215.902 29.8233C215.234 30.3035 214.502 30.6335 213.707 30.8131C212.912 30.9927 212.087 31.0089 211.232 30.8621C210.388 30.7211 209.548 30.404 208.713 29.9107C207.888 29.4232 207.205 28.8407 206.664 28.1634C206.124 27.486 205.735 26.7528 205.499 25.9638C205.278 25.1708 205.216 24.3658 205.315 23.5491C205.413 22.7325 205.691 21.9363 206.15 21.1602C206.608 20.3841 207.171 19.7558 207.839 19.2757C208.507 18.7957 209.239 18.4656 210.034 18.286ZM212.396 21.1524C211.981 21.0927 211.567 21.1201 211.155 21.2345C210.758 21.3448 210.379 21.5381 210.017 21.8145C209.671 22.0869 209.364 22.4491 209.097 22.901C208.836 23.3431 208.667 23.7868 208.59 24.2316C208.522 24.6821 208.533 25.1127 208.622 25.523C208.726 25.9293 208.905 26.3 209.158 26.6348C209.42 26.9754 209.748 27.2619 210.141 27.494C210.534 27.7261 210.938 27.8722 211.354 27.9319C211.779 27.9975 212.189 27.9749 212.586 27.8646C212.998 27.7503 213.38 27.5521 213.732 27.2699C214.095 26.9935 214.406 26.634 214.668 26.192C214.934 25.74 215.099 25.2935 215.16 24.8528C215.237 24.4081 215.224 23.9824 215.119 23.5761C215.03 23.1658 214.855 22.7902 214.592 22.4496C214.339 22.1148 214.016 21.8315 213.623 21.5994C213.23 21.3672 212.821 21.218 212.396 21.1524Z" fill="white" fill-opacity="0.8"/>
  <path d="M95.1774 10.884L89.5612 13.1122L90.3056 14.9893L95.2537 13.0264L96.188 15.3811L91.2399 17.3439L92.0481 19.3806L97.8712 17.0705L98.8369 19.5043L89.8959 23.052L85.4771 11.9154L94.2113 8.44977L95.1774 10.884Z" fill="white" fill-opacity="0.8"/>
  <path fill-rule="evenodd" clip-rule="evenodd" d="M201.934 12.6705C202.931 13.1234 203.715 13.6739 204.286 14.3215C204.867 14.9739 205.216 15.6962 205.332 16.4884C205.453 17.2703 205.325 18.0768 204.948 18.908C204.575 19.7288 204.054 20.3508 203.386 20.7741C202.718 21.1974 201.944 21.4102 201.066 21.4124C200.203 21.409 199.273 21.1809 198.275 20.728L196.374 19.8643L195.079 22.7165L191.993 21.3153L196.947 10.4061L201.934 12.6705ZM197.478 17.4329L199.192 18.2117C199.836 18.5042 200.378 18.5813 200.817 18.4423C201.267 18.308 201.605 17.9912 201.831 17.4925C202.062 16.9834 202.08 16.5156 201.886 16.0888C201.701 15.6668 201.287 15.3095 200.643 15.017L198.929 14.2383L197.478 17.4329Z" fill="white" fill-opacity="0.8"/>
  <path d="M189.516 7.66652L188.736 10.1665L182.969 8.36651L182.367 10.2946L187.448 11.8803L186.694 14.2987L181.612 12.713L180.96 14.8044L186.94 16.6705L186.16 19.1704L176.977 16.3048L180.546 4.86737L189.516 7.66652Z" fill="white" fill-opacity="0.8"/>
  <path d="M111.802 15.5819L108.545 16.5178L107.254 12.0265L102.812 13.3032L104.103 17.7941L100.846 18.73L97.5374 7.21469L100.794 6.27878L102.037 10.6048L106.479 9.32894L105.236 5.00247L108.493 4.06657L111.802 15.5819Z" fill="white" fill-opacity="0.8"/>
  <path fill-rule="evenodd" clip-rule="evenodd" d="M175.217 3.5629L173.406 12.6783L175 12.9954L174.006 17.9982L170.968 17.3945L171.438 15.0276L163.917 13.5334L163.447 15.9007L160.392 15.2933L161.385 10.2906L161.823 10.3771C162.178 10.4387 162.494 10.3685 162.772 10.1648C163.085 9.9362 163.363 9.59002 163.606 9.1265C163.861 8.66522 164.088 8.10544 164.289 7.44734C164.5 6.79138 164.702 6.06921 164.894 5.28125L165.748 1.68171L175.217 3.5629ZM167.741 6.14368C167.583 6.82195 167.412 7.45117 167.227 8.031C167.053 8.61299 166.861 9.13918 166.651 9.60935C166.453 10.0817 166.228 10.479 165.978 10.8016C165.881 10.9298 165.78 11.0433 165.675 11.1428L170.132 12.0281L171.42 5.54818L168.045 4.87799L167.741 6.14368Z" fill="white" fill-opacity="0.8"/>
  <path fill-rule="evenodd" clip-rule="evenodd" d="M121.625 1.56171C123.046 1.34663 124.187 1.45104 125.048 1.87476C125.918 2.28552 126.427 2.98175 126.575 3.96331C126.72 4.92228 126.468 5.73376 125.819 6.39756C125.679 6.53766 125.525 6.66589 125.358 6.78449C125.761 6.85297 126.125 6.96881 126.449 7.13306C127.284 7.53764 127.778 8.24752 127.931 9.26282C128.088 10.3008 127.807 11.1861 127.087 11.9183C126.378 12.6487 125.262 13.129 123.739 13.3595L117.663 14.2791L115.871 2.43272L121.625 1.56171ZM124 8.68079C123.733 8.51356 123.356 8.46656 122.871 8.53998L120.231 8.93956L120.6 11.3763L123.24 10.9771C123.725 10.9037 124.07 10.7474 124.277 10.5085C124.492 10.2566 124.57 9.92735 124.508 9.52119C124.447 9.11511 124.277 8.83503 124 8.68079ZM122.779 4.15677C122.511 3.98957 122.141 3.94183 121.667 4.01351L119.534 4.33636L119.888 6.67184L122.02 6.34899C122.494 6.27727 122.835 6.12763 123.043 5.90001C123.249 5.66108 123.323 5.34975 123.265 4.96615C123.207 4.58257 123.045 4.31271 122.779 4.15677Z" fill="white" fill-opacity="0.8"/>
  <path fill-rule="evenodd" clip-rule="evenodd" d="M150.928 0.368256C151.761 0.126734 152.655 0.0445947 153.61 0.122137C154.577 0.200612 155.446 0.425932 156.217 0.797638C156.999 1.17025 157.664 1.66466 158.209 2.28129C158.755 2.88659 159.162 3.57814 159.431 4.35555C159.711 5.13385 159.815 5.97217 159.742 6.87061C159.669 7.7691 159.431 8.58565 159.028 9.31996C158.638 10.0438 158.124 10.6605 157.487 11.1697C156.85 11.679 156.116 12.0543 155.283 12.2958C154.462 12.5383 153.569 12.6204 152.602 12.542C151.647 12.4644 150.778 12.2391 149.995 11.8665C149.212 11.4938 148.542 11.0045 147.985 10.3983C147.44 9.78168 147.032 9.08468 146.764 8.30733C146.495 7.52996 146.397 6.69192 146.47 5.79348C146.543 4.89499 146.774 4.08351 147.165 3.35964C147.556 2.63583 148.07 2.01913 148.706 1.50987C149.355 0.990201 150.096 0.609767 150.928 0.368256ZM153.383 2.92006C152.928 2.88313 152.495 2.92824 152.084 3.05516C151.684 3.183 151.324 3.38844 151.004 3.67147C150.695 3.94405 150.439 4.2838 150.234 4.69064C150.042 5.08714 149.924 5.54707 149.882 6.07021C149.84 6.58198 149.882 7.05484 150.007 7.48856C150.143 7.92322 150.341 8.30573 150.601 8.63589C150.872 8.95556 151.195 9.21058 151.569 9.40119C151.954 9.59273 152.374 9.70711 152.829 9.74404C153.284 9.78094 153.711 9.73553 154.111 9.60771C154.522 9.4808 154.882 9.28117 155.19 9.00854C155.511 8.72546 155.768 8.37971 155.961 7.97182C156.166 7.56492 156.289 7.10558 156.33 6.59388C156.373 6.07071 156.325 5.59719 156.188 5.1739C156.063 4.74024 155.865 4.36338 155.593 4.04371C155.333 3.71361 155.011 3.45279 154.626 3.26128C154.252 3.07071 153.838 2.95699 153.383 2.92006Z" fill="white" fill-opacity="0.8"/>
  <path fill-rule="evenodd" clip-rule="evenodd" d="M140.19 0.00295519C141.627 -0.0303387 142.746 0.217691 143.546 0.747026C144.357 1.26465 144.774 2.01956 144.797 3.01189C144.819 3.98148 144.466 4.7545 143.738 5.33063C143.581 5.45195 143.412 5.55976 143.231 5.65634C143.622 5.77531 143.969 5.93634 144.27 6.14042C145.046 6.64746 145.446 7.41416 145.47 8.44079C145.494 9.4903 145.103 10.3327 144.296 10.9677C143.5 11.6024 142.332 11.9377 140.792 11.9734L134.649 12.1154L134.372 0.137647L140.19 0.00295519ZM137.873 7.14448L137.93 9.60853L140.599 9.54649C141.09 9.53513 141.453 9.42431 141.687 9.21344C141.933 8.99088 142.052 8.67392 142.042 8.26324C142.032 7.8527 141.9 7.55339 141.644 7.3653C141.4 7.16551 141.033 7.07108 140.542 7.08245L137.873 7.14448ZM137.765 2.49027L137.82 4.85146L139.976 4.80166C140.455 4.79056 140.812 4.6852 141.047 4.48575C141.282 4.27486 141.395 3.97525 141.386 3.58739C141.377 3.19964 141.25 2.91167 141.006 2.72332C140.762 2.52354 140.4 2.42896 139.921 2.44006L137.765 2.49027Z" fill="white" fill-opacity="0.8"/>
</svg>