<svg xmlns="http://www.w3.org/2000/svg" width="100" height="65" viewBox="0 0 100 65" fill="none">
  <path d="M9.3074 50.8561C9.3074 50.8561 3.34313 43.5947 0.895337 35.1151C-1.52805 26.72 1.24364 16.2832 5.90224 8.4555C6.96635 6.5674 8.03045 5.30867 8.88173 4.25973C9.73302 3.42057 10.2118 2.86115 11.2228 2.16184C12.0038 1.62159 12.9572 1.56543 12.9572 1.56543C12.8065 1.86365 12.3535 3.30398 11.2228 6.56059C6.9257 18.9367 10.1679 42.8688 20.7975 51.0659C19.0949 51.0659 16.9528 51.0659 16.9528 51.0659C16.9528 51.0659 12.5089 45.317 10.1679 41.7505C8.0576 41.7505 7.83091 41.8997 6.1151 41.0796C7.81767 44.4362 10.5542 48.7582 13.108 51.0659C9.3074 50.8561 9.3074 50.8561 9.3074 50.8561ZM3.91078 31.1637C4.66465 31.5365 5.72007 31.6856 6.62472 31.5365C5.44914 26.1357 5.79231 23.1833 6.1284 17.9675C6.17723 17.2098 6.62472 14.9108 6.62472 14.9108C5.91778 14.9108 4.30767 19.584 3.91078 21.6207C3.08455 25.8607 3.77995 30.0891 3.91078 31.1637Z" fill="#002159"/>
  <path d="M31.5774 51.8901L23.511 51.07C23.511 51.07 23.2848 50.8982 22.3919 50.018C10.4121 38.2089 8.87174 15.5001 15.4795 1.00204C16.9693 0.582465 17.7241 0.487132 19.2139 0.277344C14.5318 11.8157 13.6759 21.8327 17.9323 36.3081C18.9188 39.6631 20.0282 40.3677 21.2257 40.3677C23.6617 40.7069 23.6711 40.5717 26.2249 40.7814C27.7147 45.8164 31.5774 51.8901 31.5774 51.8901Z" fill="#002159"/>
  <path d="M42.7222 55.8922C39.4194 54.0524 34.0669 52.263 34.0669 52.263C34.0669 52.263 18.0095 31.2386 28.5638 0C29.3176 2.16825e-05 31.4283 0 32.1069 0C26.8298 11.7797 28.7863 38.0319 32.1069 40.5579C35.047 42.7946 38.0416 42.9668 39.9471 43.6893C40.701 48.6099 41.6057 51.8903 42.7222 55.8922Z" fill="#002159"/>
  <path d="M44.2185 56.398C43.3672 52.2022 42.9415 49.6847 42.0903 44.0204C45.0697 45.489 46.3467 46.3281 49.3262 47.5868C49.7518 47.7966 49.9646 47.3771 49.9646 46.1183C49.9646 45.2792 49.7518 44.6498 49.539 44.2302C49.3262 43.8106 49.1133 43.3911 48.9005 42.7617C46.5595 39.1953 45.4954 37.517 42.9415 33.7408C42.0903 32.6919 41.4518 30.8038 40.8133 28.2863C39.962 25.1395 39.3236 20.3143 38.8979 14.4402C38.6851 9.19553 38.8979 6.0487 39.3236 4.16061C39.7492 2.27251 40.3877 1.64314 41.239 2.06272C44.4313 3.32145 45.921 4.16061 48.9005 6.0487C49.539 10.4543 49.9646 12.9717 50.6031 18.636C47.8364 17.3773 46.5595 16.7479 43.7928 15.699C43.3672 15.4892 43.1544 15.4892 43.1544 15.699C42.9415 15.9088 42.9415 16.5381 43.1544 17.1675C43.1544 18.4262 43.7928 19.685 44.6441 20.9437C46.5595 23.8807 47.6236 25.3493 49.7518 28.4961C50.6031 29.9646 51.4544 31.6429 52.0928 33.7408C52.9441 36.8876 53.7954 41.9226 54.221 48.0064C54.6467 53.2511 54.4339 56.398 54.0082 58.4959C53.7954 59.5448 53.5826 60.384 53.3698 60.8035C53.1569 61.2231 52.9441 61.4329 52.7313 61.4329C52.5185 61.4329 52.3056 61.4329 51.88 61.2231C48.6877 59.7546 47.4108 58.4959 44.2185 56.398Z" fill="#002159"/>
  <path d="M60.8167 43.1818C60.8167 31.014 61.0295 24.1362 59.3269 14.9055C58.6885 11.5489 58.9013 10.5 59.9654 10.7098C61.0295 11.1293 62.5192 12.5979 63.7962 15.9545C67.6269 25.395 68.4782 32.2727 69.968 44.2307C69.968 44.4405 69.968 44.6503 70.1808 45.0699C70.1808 45.4894 70.1808 45.6992 70.3936 45.6992C70.3936 45.6992 70.6064 45.0699 70.6064 44.0209C70.8193 29.9651 69.7552 21.5735 65.9244 12.133C67.4141 12.3428 68.0526 12.3428 69.5423 12.3428C75.7141 24.7204 76.7782 38.3566 73.5859 55.1397C72.7346 59.3355 71.6705 61.8529 71.0321 63.1117C70.3936 64.3704 69.5423 64.9998 68.6911 64.9998C67.8398 64.9998 67.4141 64.3704 67.4141 63.1117C67.2013 61.8529 67.4141 59.7551 67.4141 56.818C67.6269 48.0069 66.7757 41.923 64.8603 31.6434C64.6475 30.5944 64.4346 30.1749 64.4346 30.1749C64.4346 30.1749 64.4346 30.5944 64.4346 31.6434C65.0731 41.923 64.8603 47.7971 63.7962 56.6082C63.3705 59.5453 62.9449 61.6432 62.3064 62.9019C61.668 64.1606 61.0295 64.5802 60.391 64.3704C59.5398 64.1606 59.1141 63.5312 58.6885 62.0627C58.2628 60.5942 58.05 58.0767 57.6244 53.4614C55.9218 35.8392 53.1551 21.3637 49.75 6.46875C51.2397 7.3079 52.091 7.72748 53.5808 8.56664C56.7731 19.2659 58.4757 28.077 60.391 42.7622C60.6039 44.0209 60.6039 44.6503 60.8167 44.6503C60.8167 44.6503 60.8167 44.4405 60.8167 44.0209C60.8167 43.8111 60.8167 43.3915 60.8167 43.1818Z" fill="#002159"/>
  <path d="M77.0022 63.8136C75.7254 64.0234 74.474 64.1192 73.1971 64.329C79.3687 47.5459 80.1647 28.1123 71.0137 12.7978C72.9352 12.5871 74.5955 13.2223 74.7802 13.5571C83.9727 33.4747 83.9727 40.5574 77.0022 63.8136Z" fill="#002159"/>
  <path d="M96.3616 30.1752C97.1357 35.0809 96.6289 43.0379 94.6696 49.6556C93.8413 52.4533 88.1476 60.9071 86.7847 60.7643C86.2936 60.7128 86.7139 59.2179 87.6359 56.1884C90.4026 47.3772 90.1898 41.0842 87.2103 30.5948C86.7847 29.3361 86.5718 28.7067 86.5718 28.7067C86.5718 28.7067 86.5718 29.3361 86.7847 30.5948C89.5513 44.0213 88.4872 52.4128 82.9539 62.4827C81.677 62.9023 81.0385 63.1121 79.5488 63.3218C85.8579 45.4898 86.0208 34.0142 78.9977 18.4898C74.7794 9.16547 82.4703 16.746 84.8072 20.2678C88.3518 25.6094 92.318 33.7416 92.318 44.0213C92.318 44.4409 92.318 44.8604 92.318 45.4898C92.318 46.1192 92.318 46.329 92.318 46.329C92.318 46.329 92.5308 45.9094 92.7436 45.28C92.9565 44.6506 92.9565 44.2311 93.1693 43.8115C94.6076 37.4154 94.683 30.1753 90.6874 22.1316C86.7564 14.2178 92.9524 18.7937 95.5876 23.4736C106.293 42.4851 94.1552 57.0979 94.1552 57.0979C94.1552 57.0979 91.8265 58.1132 90.989 58.6636C94.7641 54.0666 96.0608 50.7102 96.9446 45.9147C97.7547 41.5184 97.9994 35.7941 96.5744 30.1752C96.3616 29.1263 96.1488 28.4969 95.936 28.4969C96.1488 28.4969 96.1488 28.9165 96.3616 30.1752Z" fill="#002159"/>
</svg>